<svg width="191" height="89" viewBox="0 0 191 89" fill="none" xmlns="http://www.w3.org/2000/svg">
<rect width="191" height="88" transform="translate(0 0.546143)" fill="white"/>
<path d="M97.0898 28.7243H102.111V53.7039C102.111 60.2907 99.1237 64.889 92.1953 64.889C89.5891 64.889 87.5553 64.454 86.1567 63.9567V59.1722C87.6824 59.7935 89.5256 60.1042 91.369 60.1042C95.6277 60.1042 97.0898 57.6187 97.0898 54.0146V28.7243Z" fill="#101214"/>
<path d="M111.328 26.798C113.298 26.798 114.697 27.9786 114.697 30.0914C114.697 32.1419 113.298 33.3847 111.328 33.3847C109.358 33.3847 107.959 32.2041 107.959 30.0914C107.959 28.0408 109.358 26.798 111.328 26.798ZM108.849 37.2994H113.68V64.6402H108.849V37.2994Z" fill="#101214"/>
<path d="M125.629 64.6402H120.926V37.2994H125.629V42.084C127.282 38.8527 130.079 36.5537 135.545 36.8644V41.4627C129.38 40.8412 125.629 42.6433 125.629 48.4843V64.6402Z" fill="#101214"/>
<path d="M158.11 59.7315C156.33 63.3355 152.961 65.1996 148.639 65.1996C141.202 65.1996 137.452 59.048 137.452 50.9699C137.452 43.2649 141.393 36.7402 149.211 36.7402C153.279 36.7402 156.457 38.5423 158.11 42.0841V37.2995H162.941V64.6403H158.11V59.7315ZM149.91 60.85C154.233 60.85 158.047 58.178 158.047 52.0884V49.9137C158.047 43.8241 154.551 41.1521 150.419 41.1521C145.016 41.1521 142.219 44.6319 142.219 50.9699C142.283 57.5565 144.953 60.85 149.91 60.85Z" fill="#101214"/>
<path d="M71.8556 23.1317H49.8628C49.8628 28.4756 54.3121 32.8252 59.7787 32.8252H63.8467V36.6157C63.8467 41.9596 68.296 46.3094 73.7626 46.3094V24.9958C73.7626 23.9395 72.9363 23.1317 71.8556 23.1317Z" fill="#1868DB"/>
<path d="M60.9858 33.8193H38.9929C38.9929 39.1631 43.4424 43.5129 48.9088 43.5129H52.9769V47.3654C52.9769 52.7095 57.4263 57.059 62.8928 57.059V35.6835C62.8928 34.6893 62.0663 33.8193 60.9858 33.8193Z" fill="#1868DB"/>
<path d="M50.116 44.5701H28.123C28.123 49.9141 32.5725 54.2637 38.0389 54.2637H42.107V58.0542C42.107 63.3982 46.5564 67.7478 52.0228 67.7478V46.4343C52.0228 45.3781 51.133 44.5701 50.116 44.5701Z" fill="#1868DB"/>
</svg>
