<svg width="191" height="89" viewBox="0 0 191 89" fill="none" xmlns="http://www.w3.org/2000/svg">
<rect width="190" height="87.27" transform="translate(0.175049 0.804688)" fill="#1F252B"/>
<mask id="mask0_656_1729" style="mask-type:luminance" maskUnits="userSpaceOnUse" x="24" y="30" width="144" height="29">
<path d="M167.055 30.4148H24.175V58.4148H167.055V30.4148Z" fill="white"/>
</mask>
<g mask="url(#mask0_656_1729)">
<path d="M43.5728 40.1074V48.7221L36.1846 53.0303V58.4147L48.1941 51.4152V37.4143L43.5728 40.1074Z" fill="#00AC69"/>
<path d="M36.1846 35.801L43.5729 40.1074L48.1942 37.4144L36.1846 30.4148L24.175 37.4144L28.7947 40.1074L36.1846 35.801Z" fill="#1CE783"/>
<path d="M31.565 47.1087V55.7234L36.1846 58.4147V44.4156L24.175 37.4143V42.8005L31.565 47.1087Z" fill="white"/>
<path d="M64.6787 37.395C62.0932 37.395 60.8686 39.0436 60.8686 39.0436H60.7325L60.4621 37.6698H57.3306V51.683H60.7325V43.5809C60.7325 41.7948 61.9537 40.5584 63.7262 40.5584C65.4986 40.5584 66.7199 41.7913 66.7199 43.5809V51.683H70.1218V43.3025C70.1218 39.7305 67.8085 37.395 64.6787 37.395Z" fill="white"/>
<path d="M101.367 46.8746H101.171L98.858 37.6698H95.3968L93.0835 46.8746H92.8898L90.5748 37.6698H87.0369L90.5748 51.683H94.7181L97.0297 42.6157H97.2251L99.5384 51.683H103.68L107.218 37.6698H103.68L101.367 46.8746Z" fill="white"/>
<path d="M117.635 38.9062H117.499L117.227 37.6733H114.369V51.6847H117.771V43.5826C117.771 41.7965 118.587 40.9723 120.357 40.9723H122.102V37.6715H120.077C119.604 37.6725 119.136 37.7846 118.712 37.9988C118.288 38.2131 117.92 38.5237 117.635 38.9062Z" fill="white"/>
<path d="M129.628 37.395C125.548 37.395 122.555 40.4175 122.555 44.6764C122.555 48.9353 125.379 51.9578 129.628 51.9578C133.071 51.9578 135.143 49.9128 136.007 48.4087L132.884 47.2849C132.575 47.8556 131.33 48.9529 129.628 48.9529C127.645 48.9529 126.228 47.6989 125.956 45.7825H136.297C136.392 45.331 136.438 44.8703 136.433 44.4087C136.433 40.4175 133.438 37.395 129.628 37.395ZM125.956 43.4399C126.365 41.6539 127.589 40.2801 129.628 40.2801C131.535 40.2801 132.758 41.6539 133.03 43.4399H125.956Z" fill="white"/>
<path d="M79.373 37.395C75.2908 37.395 72.2971 40.4175 72.2971 44.6764C72.2971 48.9353 75.1163 51.9578 79.373 51.9578C82.8151 51.9578 84.8859 49.9128 85.7494 48.4087L82.6267 47.2849C82.3179 47.8556 81.074 48.9529 79.373 48.9529C77.3895 48.9529 75.9712 47.6989 75.699 45.7825H86.0408C86.1364 45.331 86.1821 44.8703 86.1769 44.4087C86.1769 40.4175 83.1832 37.395 79.373 37.395ZM75.699 43.4399C76.1072 41.6539 77.3319 40.2801 79.373 40.2801C81.2781 40.2801 82.5028 41.6539 82.7749 43.4399H75.699Z" fill="white"/>
<path d="M148.325 32.1374H144.923V35.572H148.325V32.1374Z" fill="white"/>
<path d="M157.713 48.7979C155.672 48.7979 154.039 47.1493 154.039 44.6764C154.039 42.2034 155.672 40.5549 157.713 40.5549C159.754 40.5549 160.57 41.9287 160.842 42.753L163.923 41.6469C163.176 39.69 161.345 37.395 157.713 37.395C153.63 37.395 150.636 40.4175 150.636 44.6764C150.636 48.9353 153.63 51.9578 157.713 51.9578C161.376 51.9578 163.208 49.6257 163.941 47.5756L160.842 46.4624C160.57 47.424 159.754 48.7979 157.713 48.7979Z" fill="white"/>
<path d="M136.81 35.1898H138.741V51.683H142.142V32.1374H136.81V35.1898Z" fill="white"/>
<path d="M148.325 37.6698H144.923V51.683H148.325V37.6698Z" fill="white"/>
<path d="M165.762 48.9951C165.501 48.9912 165.247 49.0656 165.028 49.2089C164.81 49.352 164.638 49.5575 164.536 49.7992C164.434 50.0408 164.405 50.3078 164.454 50.566C164.502 50.8241 164.625 51.0619 164.808 51.2491C164.991 51.4363 165.225 51.5644 165.48 51.6171C165.735 51.6698 166 51.6447 166.241 51.5451C166.481 51.4454 166.687 51.2757 166.833 51.0575C166.977 50.8392 167.055 50.5824 167.055 50.3196C167.061 50.1458 167.031 49.9726 166.969 49.8105C166.905 49.6485 166.811 49.501 166.69 49.3771C166.569 49.2532 166.424 49.1555 166.265 49.0898C166.106 49.0241 165.934 48.9919 165.762 48.9951ZM165.762 51.4416C165.541 51.4454 165.325 51.3829 165.139 51.262C164.955 51.141 164.809 50.9673 164.721 50.7626C164.635 50.5579 164.61 50.3317 164.65 50.1128C164.691 49.894 164.796 49.6922 164.95 49.5334C165.105 49.3745 165.303 49.2657 165.519 49.2208C165.735 49.176 165.959 49.197 166.164 49.2813C166.368 49.3657 166.542 49.5094 166.665 49.6943C166.788 49.8792 166.854 50.0969 166.854 50.3196C166.86 50.4663 166.834 50.6126 166.782 50.7493C166.729 50.8861 166.648 51.0105 166.546 51.1149C166.444 51.2193 166.321 51.3015 166.187 51.3565C166.052 51.4114 165.907 51.438 165.762 51.4345V51.4416Z" fill="white"/>
<path d="M166.326 50.0748C166.325 50.0113 166.312 49.9486 166.287 49.8904C166.262 49.8322 166.224 49.7799 166.178 49.7367C166.132 49.6934 166.078 49.6602 166.019 49.639C165.959 49.6177 165.897 49.6091 165.833 49.6134H165.251V50.9943H165.451V50.5152H165.635L166.107 50.9943H166.357L165.884 50.5152C166.001 50.5152 166.112 50.469 166.194 50.3866C166.277 50.3041 166.324 50.1922 166.326 50.0748ZM165.453 50.3127V49.8159H165.833C165.87 49.8115 165.907 49.8149 165.942 49.8258C165.977 49.8368 166.009 49.855 166.037 49.8795C166.065 49.9039 166.087 49.9339 166.103 49.9676C166.118 50.0013 166.126 50.0377 166.126 50.0748C166.126 50.2211 166.034 50.3127 165.833 50.3127H165.453Z" fill="white"/>
</g>
</svg>
