<svg width="190" height="88" viewBox="0 0 190 88" fill="none" xmlns="http://www.w3.org/2000/svg">
<rect width="190" height="87" transform="translate(0 0.414795)" fill="black"/>
<path d="M45.4133 47.9945C45.4133 48.8297 45.2363 49.5994 44.8782 50.3077C44.5243 51.016 44.0263 51.6138 43.3924 52.1092C42.7586 52.6046 42.0013 52.9894 41.1246 53.2678C40.2479 53.5462 39.289 53.6813 38.2476 53.6813C37.0006 53.6813 35.8852 53.5135 34.8933 53.1736C33.9013 52.8338 32.9135 52.2729 31.9216 51.4909L33.5597 48.842C34.3459 49.4971 35.0538 49.9761 35.6917 50.2791C36.3256 50.582 36.9717 50.7335 37.6344 50.7335C38.4493 50.7335 39.0996 50.5288 39.5976 50.1071C40.0957 49.6854 40.3385 49.1245 40.3385 48.4162C40.3385 48.1133 40.2932 47.8267 40.2027 47.5606C40.1121 47.2944 39.9516 47.0242 39.7088 46.7417C39.47 46.4633 39.1408 46.1604 38.7169 45.8328C38.3012 45.5053 37.762 45.1 37.0993 44.6169C36.5931 44.2607 36.0951 43.8963 35.6176 43.5196C35.132 43.1389 34.6998 42.7376 34.3047 42.3037C33.9137 41.8738 33.5968 41.3947 33.3539 40.8625C33.1152 40.3303 32.9917 39.7243 32.9917 39.0447C32.9917 38.2627 33.1564 37.5421 33.4856 36.8994C33.8149 36.2525 34.2635 35.7039 34.8356 35.2535C35.4036 34.795 36.0868 34.4429 36.8894 34.1931C37.6879 33.9434 38.5522 33.8124 39.4947 33.8124C40.4867 33.8124 41.4415 33.9475 42.3676 34.2054C43.2936 34.4715 44.1497 34.8523 44.94 35.3559L43.4542 37.7387C42.4376 37.0304 41.3716 36.6783 40.2521 36.6783C39.5688 36.6783 39.0008 36.8543 38.5563 37.2105C38.1077 37.5667 37.8896 38.0089 37.8896 38.5411C37.8896 39.0734 38.083 39.5032 38.4781 39.9086C38.8691 40.3139 39.5441 40.883 40.5072 41.6158C41.4745 42.3241 42.2812 42.9464 42.9191 43.4787C43.5571 44.0109 44.0592 44.5104 44.4296 44.9812C44.8 45.4521 45.0552 45.9229 45.1952 46.406C45.3351 46.8891 45.4051 47.4173 45.4051 47.9986H45.4174L45.4133 47.9945ZM67.5935 43.3354C67.5935 44.8257 67.3671 46.1972 66.902 47.45C66.441 48.7028 65.8072 49.7919 64.9881 50.7294C64.1691 51.667 63.206 52.3917 62.0824 52.9075C60.9629 53.4234 59.7528 53.6813 58.4481 53.6813C57.8637 53.6813 57.3163 53.6322 56.8059 53.5298C56.2955 53.4275 55.8099 53.2555 55.353 53.0181C54.8962 52.7806 54.4434 52.4694 53.9948 52.0887C53.5462 51.7079 53.0852 51.2412 52.5995 50.6844V62.7008H47.7017V34.275H52.5995L52.6242 37.0427C53.5173 35.9331 54.4846 35.1143 55.5218 34.5984C56.5672 34.0785 57.7772 33.8246 59.1519 33.8246C60.399 33.8246 61.5391 34.058 62.5639 34.5247C63.597 34.9915 64.486 35.6425 65.2351 36.4777C65.9842 37.3129 66.5645 38.3078 66.972 39.4746C67.3794 40.6373 67.5811 41.927 67.5811 43.3395H67.5893L67.5935 43.3354ZM62.2676 43.5319C62.2676 41.4562 61.8478 39.8185 60.9999 38.6148C60.1562 37.4111 59.0079 36.8134 57.5467 36.8134C56.0115 36.8134 54.7933 37.4521 53.9001 38.7295C53.007 40.0068 52.5542 41.7346 52.5542 43.9086C52.5542 46.0826 52.9988 47.7038 53.8754 48.9198C54.7521 50.1358 55.9704 50.7417 57.5056 50.7417C58.4234 50.7417 59.189 50.5083 59.7899 50.0416C60.3908 49.5708 60.8764 48.9771 61.2469 48.2566C61.6173 47.536 61.8807 46.7499 62.033 45.9065C62.1853 45.059 62.2635 44.2688 62.2635 43.5319H62.2594H62.2676ZM69.7707 53.2228H74.7962V25.3989H69.7707V53.2187V53.2228ZM96.2643 53.231V34.2504H91.2389V44.4654C91.2389 45.3743 91.2018 46.0785 91.1236 46.5739C91.0495 47.0693 90.9178 47.5155 90.7408 47.9249C90.0288 49.493 88.7282 50.2791 86.8349 50.2791C85.3574 50.2791 84.3202 49.7468 83.7316 48.6824C83.5011 48.2811 83.3406 47.8226 83.25 47.3149C83.1595 46.8072 83.1142 46.0744 83.1142 45.1082V34.2504H78.0888V45.0345C78.0888 45.7673 78.097 46.3896 78.1094 46.8973C78.1217 47.405 78.1547 47.8512 78.2082 48.2484C78.2576 48.6414 78.3193 48.9894 78.381 49.2924C78.4428 49.5954 78.5415 49.886 78.6691 50.1644C79.1301 51.3313 79.871 52.2115 80.904 52.8052C81.9371 53.3988 83.2007 53.6936 84.6988 53.6936C86.0488 53.6936 87.2301 53.4602 88.2508 52.9935C89.2715 52.5227 90.2593 51.7612 91.2306 50.6967L91.243 53.2351H96.2684V53.2269H96.2643V53.231ZM117.942 53.2228V42.4633C117.942 41.7305 117.934 41.1041 117.922 40.5882C117.909 40.0682 117.881 39.6261 117.823 39.2412C117.774 38.8646 117.708 38.5288 117.634 38.2382C117.56 37.9475 117.469 37.665 117.366 37.3825C116.905 36.2484 116.164 35.3722 115.131 34.7499C114.098 34.1276 112.835 33.8206 111.328 33.8206C109.978 33.8206 108.797 34.0539 107.776 34.5247C106.756 34.9956 105.768 35.7612 104.796 36.8216L104.788 34.2832H99.7175V53.2228H104.788V42.9997C104.788 42.1153 104.821 41.4275 104.887 40.9362C104.953 40.4449 105.072 39.9864 105.253 39.5524C105.583 38.795 106.089 38.2177 106.768 37.8287C107.447 37.4398 108.254 37.2433 109.2 37.2433C110.678 37.2433 111.715 37.7755 112.304 38.8318C112.53 39.233 112.691 39.6916 112.781 40.1952C112.872 40.6987 112.917 41.4316 112.917 42.3937V53.2269H117.942V53.2228ZM138.756 51.9741L131.096 42.5002L137.575 35.6015L133.764 33.972L127.022 41.7387H126.487V25.3989H121.416V53.2187H126.487V43.1389L134.068 53.5994L138.756 51.97H138.76L138.756 51.9741ZM158.347 45.1737V42.0703L143.106 34.4633V37.8697L154.919 43.5892L143.106 49.3825V52.7151L158.347 45.1818V45.1737Z" fill="white"/>
</svg>
