<svg width="88" height="89" viewBox="0 0 88 89" fill="none" xmlns="http://www.w3.org/2000/svg">
<rect width="87.27" height="87.27" transform="translate(0.254883 0.9646)" fill="white"/>
<rect width="87.27" height="87.27" transform="translate(0.254883 0.9646)" fill="url(#paint0_linear_656_1718)"/>
<path d="M62.63 35.2382C62.5579 34.5888 62.4857 33.7951 62.1971 32.9293C61.9805 32.0634 61.6199 31.1254 61.1148 30.1153C60.6096 29.1051 59.9604 28.095 59.1667 27.0848C58.8781 26.724 58.5172 26.2911 58.0843 25.9303C58.6615 23.6214 57.3628 21.6733 57.3628 21.6733C55.1982 21.5289 53.755 22.3226 53.2499 22.7556C53.1778 22.7556 53.1056 22.6834 52.9613 22.6112C52.6007 22.4669 52.2398 22.3226 51.8069 22.1783C51.374 22.034 51.0132 21.9619 50.5803 21.8176C50.1474 21.7454 49.7143 21.6733 49.3537 21.6011C49.2814 21.6011 49.2094 21.6011 49.1371 21.6011C48.1991 18.5706 45.4573 17.2719 45.4573 17.2719C42.4269 19.22 41.8496 21.8897 41.8496 21.8897C41.8496 21.8897 41.8496 21.9619 41.8496 22.034C41.7053 22.1062 41.4888 22.1062 41.3445 22.1783C41.1281 22.2505 40.9116 22.3226 40.623 22.3948C40.4065 22.4669 40.1901 22.5391 39.9014 22.6834C39.4685 22.8999 38.9635 23.1163 38.5305 23.3328C38.0976 23.5493 37.6647 23.8379 37.2318 24.1265C37.1596 24.1265 37.1596 24.0543 37.1596 24.0543C32.9025 22.4669 29.1505 24.4151 29.1505 24.4151C28.7897 28.8887 30.81 31.7748 31.243 32.2799C31.1708 32.5685 31.0265 32.8571 30.9544 33.1458C30.6657 34.1559 30.3771 35.2382 30.2328 36.3206C30.2328 36.4649 30.1606 36.6092 30.1606 36.7535C26.2643 38.7016 25.1099 42.6701 25.1099 42.6701C28.3568 46.4222 32.181 46.6385 32.181 46.6385C32.6861 47.5045 33.1911 48.298 33.8405 49.0918C34.1291 49.3803 34.4178 49.7412 34.6342 50.0298C33.4797 53.4211 34.7785 56.2351 34.7785 56.2351C38.3862 56.3794 40.7673 54.6477 41.2724 54.2148C41.6331 54.3591 41.9939 54.4311 42.3547 54.5756C43.437 54.8642 44.5915 55.0085 45.7459 55.0806C46.0345 55.0806 46.3233 55.0806 46.6118 55.0806H46.7561H46.8282H46.9725H47.1168C48.8486 57.5338 51.8069 57.8946 51.8069 57.8946C53.9716 55.6578 54.0436 53.421 54.0436 52.9159V52.8439V52.7716C54.4765 52.483 54.9094 52.1224 55.3425 51.7615C56.2083 50.9678 56.9298 50.102 57.5792 49.164C57.6514 49.0918 57.7235 49.0197 57.7235 48.8754C60.1767 49.0197 61.8363 47.3602 61.8363 47.3602C61.4034 44.8347 59.9602 43.6081 59.6716 43.3917H59.5995C59.5995 43.2472 59.5995 43.1029 59.5995 42.9587C59.5995 42.6701 59.5995 42.3815 59.5995 42.1651V41.8043V41.732V41.66V41.5877V41.4434V41.2271C59.5995 41.1548 59.5995 41.0828 59.5995 41.0105C59.5995 40.9385 59.5995 40.8662 59.5995 40.794V40.5777V40.3611C59.5273 40.0725 59.5273 39.7839 59.4552 39.5674C59.1667 38.4852 58.8058 37.475 58.2286 36.537C57.6514 35.599 57.002 34.8053 56.2083 34.0838C55.4146 33.3622 54.5488 32.8571 53.6107 32.4242C52.6727 31.9913 51.7347 31.7748 50.7246 31.6305C50.2195 31.5584 49.7866 31.5584 49.2814 31.5584H49.1371H49.0651H48.9929H48.9208H48.7765C48.7043 31.5584 48.632 31.5584 48.56 31.5584C48.3434 31.5584 48.0548 31.6305 47.8385 31.6305C46.9004 31.7748 45.9624 32.1356 45.1687 32.6407C44.375 33.1458 43.6535 33.723 43.0762 34.3724C42.499 35.0218 42.0661 35.8155 41.7775 36.6092C41.4888 37.4029 41.3445 38.1965 41.2724 38.9902C41.2724 39.2067 41.2724 39.351 41.2724 39.5674C41.2724 39.6396 41.2724 39.6396 41.2724 39.7119V39.8562C41.2724 39.9282 41.2724 40.0725 41.2724 40.1448C41.3445 40.5054 41.4167 40.9385 41.4888 41.2991C41.7053 42.0206 42.0661 42.6701 42.4269 43.2472C42.8598 43.8246 43.3648 44.2575 43.87 44.6182C44.375 44.979 44.9523 45.2676 45.5295 45.4119C46.1067 45.5562 46.6118 45.6284 47.189 45.6284C47.2611 45.6284 47.3333 45.6284 47.4054 45.6284H47.4776H47.5499C47.6219 45.6284 47.6942 45.6284 47.6942 45.6284C47.6942 45.6284 47.6942 45.6284 47.7662 45.6284H47.8385H47.9105C47.9828 45.6284 48.0548 45.6284 48.1271 45.6284C48.1991 45.6284 48.2714 45.6284 48.3434 45.5562C48.4877 45.5562 48.56 45.4841 48.7043 45.4841C48.9208 45.4119 49.1371 45.3398 49.3537 45.1955C49.57 45.1233 49.7143 44.979 49.9309 44.8347C50.0029 44.8347 50.0031 44.7626 50.0752 44.6904C50.2917 44.5461 50.2917 44.2575 50.1474 44.1132C50.0031 43.9689 49.7866 43.8967 49.6423 44.041C49.57 44.041 49.57 44.1132 49.498 44.1132C49.3537 44.1853 49.2094 44.2575 48.9929 44.3296C48.8486 44.4018 48.632 44.4018 48.4877 44.4739C48.4157 44.4739 48.2714 44.4739 48.1991 44.4739C48.1271 44.4739 48.1271 44.4739 48.0548 44.4739C47.9828 44.4739 47.9828 44.4739 47.9105 44.4739C47.8385 44.4739 47.8385 44.4739 47.7662 44.4739C47.6942 44.4739 47.6219 44.4739 47.6219 44.4739H47.5499H47.4776C47.4054 44.4739 47.4056 44.4739 47.3333 44.4739C46.9004 44.4018 46.5396 44.3296 46.1067 44.1132C45.6738 43.9689 45.313 43.6803 44.9522 43.3917C44.5915 43.1029 44.3029 42.6701 44.0864 42.3094C43.87 41.9486 43.6535 41.4434 43.5812 40.9385C43.5092 40.7219 43.5092 40.4334 43.5092 40.2168C43.5092 40.1448 43.5092 40.0725 43.5092 40.0005V39.9282V39.8562C43.5092 39.7119 43.5092 39.5674 43.5812 39.4231C43.7978 38.3408 44.3029 37.3307 45.1687 36.4649C45.3852 36.2484 45.6016 36.1041 45.8181 35.8875C46.0345 35.7432 46.3233 35.599 46.5396 35.4547C46.8282 35.3104 47.1168 35.2382 47.3333 35.1661C47.6219 35.0939 47.9105 35.0218 48.1991 35.0218C48.3434 35.0218 48.4877 35.0218 48.632 35.0218H48.7043H48.8486H48.9208H49.0651C49.3537 35.0218 49.7143 35.0939 50.0029 35.1661C50.6524 35.3104 51.2296 35.5268 51.8069 35.8875C52.9613 36.537 53.8993 37.5472 54.5488 38.7016C54.8374 39.2788 55.0539 39.9282 55.1982 40.5777C55.1982 40.7219 55.2703 40.9385 55.2703 41.0828V41.2271V41.3714C55.2703 41.4434 55.2703 41.4434 55.2703 41.5157C55.2703 41.5877 55.2703 41.5877 55.2703 41.66V41.8043V41.9486C55.2703 42.0206 55.2703 42.1649 55.2703 42.2372C55.2703 42.4537 55.2703 42.598 55.1982 42.8144C55.1982 42.9587 55.126 43.1752 55.126 43.3195C55.126 43.4638 55.0537 43.6803 54.9817 43.8246C54.9094 44.1853 54.7651 44.5461 54.6208 44.8347C54.3322 45.4841 53.9716 46.1336 53.5385 46.7828C52.6727 47.9374 51.5183 48.9475 50.1474 49.5247C49.498 49.8134 48.7765 50.0298 48.0548 50.1741C47.6942 50.2463 47.3333 50.2463 46.9725 50.3184H46.9004H46.8282H46.6839H46.5396H46.4676C46.251 50.3184 46.1067 50.3184 45.8902 50.3184C45.0966 50.2463 44.3029 50.102 43.5812 49.8855C42.8598 49.6691 42.0661 49.3804 41.4167 49.0197C40.0458 48.298 38.8191 47.2879 37.809 46.0613C37.3039 45.4841 36.871 44.8347 36.5824 44.1132C36.2216 43.3917 35.933 42.6701 35.7165 41.9486C35.5001 41.2271 35.3558 40.4334 35.3558 39.7119V39.5674V39.4953V39.351V38.9181V38.8459V38.7016V38.6295C35.3558 38.5573 35.3558 38.413 35.3558 38.3408C35.3558 37.9801 35.4279 37.5472 35.4279 37.1864C35.5001 36.8255 35.5722 36.3927 35.6444 36.032C35.7165 35.6711 35.7887 35.2382 35.933 34.8775C36.1494 34.1559 36.4381 33.4344 36.7267 32.7128C37.3761 31.3419 38.1697 30.1153 39.1799 29.1773C39.3964 28.9608 39.685 28.6722 39.9736 28.4557C40.2622 28.2393 40.5509 28.0228 40.8395 27.8785C41.1281 27.662 41.4167 27.5177 41.7053 27.3734C41.8496 27.3013 41.9939 27.2291 42.1382 27.157C42.2104 27.157 42.2825 27.0848 42.3547 27.0848C42.4268 27.0848 42.499 27.0127 42.5712 27.0127C42.8598 26.8684 43.2205 26.7962 43.5092 26.6519C43.5812 26.6519 43.6535 26.5797 43.7257 26.5797C43.7978 26.5797 43.87 26.5076 43.9421 26.5076C44.0864 26.4354 44.3029 26.4354 44.4472 26.3633C44.5193 26.3633 44.5915 26.2911 44.7358 26.2911C44.8079 26.2911 44.8801 26.2911 45.0244 26.219C45.0966 26.219 45.1687 26.219 45.313 26.1468H45.4573H45.6016C45.6738 26.1468 45.7459 26.1468 45.8902 26.0746C45.9624 26.0746 46.1067 26.0746 46.179 26.0025C46.251 26.0025 46.3953 26.0025 46.4676 26.0025C46.5396 26.0025 46.6119 26.0025 46.6839 26.0025H46.8282H46.9004H46.9725C47.0447 26.0025 47.189 26.0025 47.2611 26.0025H47.4054H47.4776C47.5499 26.0025 47.6219 26.0025 47.6942 26.0025C48.0548 26.0025 48.3434 26.0025 48.7043 26.0025C49.3537 26.0025 50.0029 26.0746 50.6524 26.219C51.879 26.4354 53.0336 26.8684 54.1159 27.3734C55.1982 27.8785 56.136 28.5279 56.9298 29.2494C57.002 29.3216 57.002 29.3216 57.0741 29.3937C57.1463 29.4659 57.1463 29.4659 57.2184 29.538C57.2906 29.6102 57.4349 29.6824 57.507 29.8267C57.5792 29.971 57.7235 29.971 57.7957 30.1153C57.8678 30.2596 58.0121 30.3318 58.0843 30.4039C58.445 30.7647 58.7336 31.1254 59.0224 31.5584C59.5995 32.2799 60.1047 33.0736 60.4653 33.7951C60.4653 33.8673 60.5376 33.8673 60.5376 33.9394C60.5376 34.0116 60.6096 34.0116 60.6096 34.0838C60.6819 34.1559 60.6819 34.2281 60.7539 34.3724C60.8262 34.4445 60.8262 34.5167 60.8982 34.661C60.9705 34.7331 60.9705 34.8053 61.0425 34.9496C61.187 35.3104 61.3313 35.599 61.4034 35.8875C61.5477 36.3927 61.692 36.8255 61.7642 37.1864C61.8363 37.3307 61.9805 37.475 62.1248 37.4029C62.2691 37.4029 62.4136 37.2586 62.4136 37.1141C62.7022 36.2484 62.7022 35.7432 62.63 35.2382Z" fill="white"/>
<path d="M27.1455 66.3582C27.0186 69.4692 24.5743 71.9134 21.4951 71.9134C18.2573 71.9134 15.8765 69.3104 15.8765 66.136C15.8765 62.9616 18.4794 60.3269 21.6538 60.3269C23.0823 60.3269 24.479 60.93 25.6853 62.0411L24.7647 63.1838C23.8442 62.3903 22.7649 61.8506 21.6856 61.8506C19.3683 61.8506 17.4636 63.7552 17.4636 66.1043C17.4636 68.485 19.2731 70.3262 21.5586 70.3262C23.6219 70.3262 25.2409 68.8342 25.5583 66.8661H20.8919V65.5011H27.209L27.1455 66.3582Z" fill="white"/>
<path d="M32.5422 65.5964H31.6851C30.7328 65.5964 29.9709 66.3583 29.9709 67.3106V71.8182H28.4473V64.1362H29.717V64.771C30.1297 64.3584 30.7963 64.1362 31.5264 64.1362H33.1771L32.5422 65.5964Z" fill="white"/>
<path d="M40.9219 71.8178H39.6204V70.8338C38.6046 71.8178 37.0175 72.294 35.3985 71.5956C34.1922 71.056 33.3034 69.9767 33.0812 68.6752C32.605 66.2309 34.5097 64.0089 36.9539 64.0089C37.9697 64.0089 38.922 64.4215 39.5886 65.0882V64.1041H40.9219V71.8178ZM39.3347 68.5482C39.6839 66.9928 38.5093 65.5643 36.9857 65.5643C35.6525 65.5643 34.5732 66.6436 34.5732 67.9768C34.5732 69.4688 35.8746 70.6433 37.4301 70.3576C38.3507 70.1989 39.1125 69.4688 39.3347 68.5482Z" fill="white"/>
<path d="M44.0015 63.6915V64.1359H46.4457V65.5009H44.0015V71.8497H42.4778V63.755C42.4778 62.0726 43.684 61.0568 45.2077 61.0568H47.0489L46.4457 62.517H45.2077C44.5411 62.517 44.0015 63.0249 44.0015 63.6915Z" fill="white"/>
<path d="M54.6038 71.8178H53.3023V70.8338C52.2865 71.8178 50.6993 72.294 49.0804 71.5956C47.8741 71.056 46.9853 69.9767 46.7631 68.6752C46.2869 66.2309 48.2233 64.0089 50.6676 64.0089C51.6834 64.0089 52.6357 64.4215 53.3023 65.0882V64.1041H54.6356L54.6038 71.8178ZM53.0484 68.5482C53.3975 66.9928 52.223 65.5643 50.6993 65.5643C49.3661 65.5643 48.2868 66.6436 48.2868 67.9768C48.2868 69.4688 49.5883 70.6433 51.1437 70.3576C52.0643 70.1989 52.8262 69.4688 53.0484 68.5482Z" fill="white"/>
<path d="M62.8256 67.2784V71.8178H61.3019V67.2784C61.3019 66.3261 60.5082 65.5643 59.5877 65.5643C58.6037 65.5643 57.8418 66.3261 57.8418 67.2784V71.8178H56.3181V64.1358H57.5879V64.8025C58.1275 64.2945 58.8893 64.0089 59.6512 64.0089C61.4289 64.0089 62.8256 65.4691 62.8256 67.2784Z" fill="white"/>
<path d="M71.8717 71.8178H70.5701V70.8338C69.5543 71.8178 67.9672 72.294 66.3483 71.5956C65.142 71.056 64.2532 69.9767 64.0309 68.6752C63.5548 66.2309 65.4912 64.0089 67.9354 64.0089C68.9512 64.0089 69.9035 64.4215 70.5701 65.0882V64.1041H71.9034L71.8717 71.8178ZM70.3162 68.5482C70.6654 66.9928 69.4909 65.5643 67.9672 65.5643C66.634 65.5643 65.5547 66.6436 65.5547 67.9768C65.5547 69.4688 66.8561 70.6433 68.4116 70.3576C69.3004 70.1989 70.094 69.4688 70.3162 68.5482Z" fill="white"/>
<defs>
<linearGradient id="paint0_linear_656_1718" x1="43.9076" y1="110.854" x2="43.9076" y2="9.89766" gradientUnits="userSpaceOnUse">
<stop stop-color="#FFF100"/>
<stop offset="1" stop-color="#F05A28"/>
</linearGradient>
</defs>
</svg>
