<svg width="190" height="88" viewBox="0 0 190 88" fill="none" xmlns="http://www.w3.org/2000/svg">
<rect width="190" height="87" transform="translate(0 0.414795)" fill="#475BC0"/>
<path d="M49.657 46.8789C47.5002 49.0356 47.5002 52.5367 49.657 54.6935C51.8138 56.8502 55.3148 56.8502 57.4716 54.6935C59.6284 52.5367 59.6284 49.0356 57.4716 46.8789C55.3148 44.7221 51.8138 44.7221 49.657 46.8789ZM55.5069 52.7287C54.4433 53.7924 52.7001 53.7924 51.6365 52.7287C50.5729 51.6651 50.5729 49.922 51.6365 48.8584C52.7001 47.7948 54.4433 47.7948 55.5069 48.8584C56.5705 49.922 56.5705 51.6651 55.5069 52.7287ZM60.7363 48.0016H63.0556V49.1686C63.6169 48.4004 64.3999 47.8391 65.5964 47.8391C67.5021 47.8391 69.3191 49.3311 69.3191 52.064V52.0935C69.3191 54.8264 67.5316 56.3184 65.5964 56.3184C64.3556 56.3184 63.6022 55.7571 63.0556 55.0923V58.5934H60.7363V48.0016ZM66.9998 52.1083V52.0788C66.9998 50.7197 66.0839 49.8186 65.0055 49.8186C63.9272 49.8186 63.026 50.7197 63.026 52.0788V52.1083C63.026 53.4674 63.9272 54.3685 65.0055 54.3685C66.0839 54.3537 66.9998 53.4821 66.9998 52.1083ZM70.9588 52.1231V52.0935C70.9588 49.7743 72.6133 47.8538 74.9769 47.8538C77.695 47.8538 78.9359 49.9663 78.9359 52.2708C78.9359 52.4481 78.9212 52.6696 78.9064 52.8765H73.2485C73.4701 53.9253 74.2087 54.4719 75.2428 54.4719C76.011 54.4719 76.5723 54.2355 77.2223 53.6446L78.5371 54.8116C77.7837 55.7571 76.6905 56.3332 75.2133 56.3332C72.7611 56.3184 70.9588 54.6048 70.9588 52.1231ZM76.6905 51.4288C76.5576 50.3947 75.9519 49.7004 74.9769 49.7004C74.0167 49.7004 73.3963 50.3799 73.219 51.4288H76.6905ZM80.5904 48.0016H82.954V49.1834C83.5006 48.4891 84.1949 47.8538 85.3915 47.8538C87.1789 47.8538 88.213 49.0356 88.213 50.9413V56.3184H85.8494V51.6799C85.8494 50.5572 85.3176 49.9958 84.4165 49.9958C83.5154 49.9958 82.9392 50.572 82.9392 51.6799V56.3184H80.5757V48.0016H80.5904ZM57.383 19.7124L54.0001 23.0953C53.3353 23.76 53.3353 24.8384 54.0001 25.5032L67.2214 38.7245C67.8862 39.3893 68.9645 39.3893 69.6293 38.7245L73.0122 35.3416C73.6769 34.6769 73.6769 33.5985 73.0122 32.9337L59.7909 19.7124C59.1261 19.0476 58.0477 19.0476 57.383 19.7124ZM33.6733 62.9512C34.2789 62.3456 34.2789 61.3706 33.6733 60.7649L31.9449 59.0366C31.3392 58.4309 30.3642 58.4309 29.7586 59.0366L26.2132 62.5819L25.2382 61.607C24.7064 61.0751 23.8201 61.0751 23.2883 61.607C22.7565 62.1388 22.7565 63.0251 23.2883 63.5569L29.1529 69.4216C29.6847 69.9534 30.5711 69.9534 31.1029 69.4216C31.6347 68.8898 31.6347 68.0034 31.1029 67.4716L30.1279 66.4966L33.6733 62.9512ZM51.5774 29.4179L44.0583 36.937C43.3935 37.6018 43.3935 38.7097 44.0583 39.3745L48.6968 44.013C51.9763 41.6494 56.5853 41.9449 59.5397 44.8994L63.2919 41.1472C63.9567 40.4824 63.9567 39.3745 63.2919 38.7097L54.0149 29.4326C53.3353 28.7531 52.2422 28.7531 51.5774 29.4179ZM46.7468 45.9777L43.9992 43.2301C43.364 42.5949 42.3003 42.5949 41.6651 43.2301L31.9892 52.906C31.354 53.5412 31.354 54.6048 31.9892 55.24L37.4698 60.7206C38.105 61.3558 39.1686 61.3558 39.8038 60.7206L46.023 54.5014C44.723 51.7685 44.9594 48.4891 46.7468 45.9777ZM92.5856 47.4993H89.2175V45.2539H98.3912V47.4993H95.0231V56.3184H92.5856V47.4993ZM98.406 52.1083V52.0788C98.406 49.7595 100.06 47.8391 102.424 47.8391C105.142 47.8391 106.383 49.9515 106.383 52.256C106.383 52.4333 106.368 52.6549 106.354 52.8617H100.696C100.917 53.9105 101.656 54.4571 102.69 54.4571C103.458 54.4571 104.019 54.2207 104.669 53.6299L105.984 54.7969C105.231 55.7423 104.138 56.3184 102.66 56.3184C100.208 56.3184 98.406 54.6048 98.406 52.1083ZM104.138 51.4288C104.005 50.3947 103.399 49.7004 102.424 49.7004C101.464 49.7004 100.843 50.3799 100.666 51.4288H104.138ZM108.023 45.2539H110.327V56.3184H108.023V45.2539ZM111.967 52.1231V52.0935C111.967 49.7743 113.622 47.8538 115.985 47.8538C118.703 47.8538 119.944 49.9663 119.944 52.2708C119.944 52.4481 119.929 52.6696 119.915 52.8765H114.257C114.478 53.9253 115.217 54.4719 116.251 54.4719C117.019 54.4719 117.581 54.2355 118.231 53.6446L119.545 54.8116C118.792 55.7571 117.699 56.3332 116.221 56.3332C113.784 56.3184 111.967 54.6048 111.967 52.1231ZM117.713 51.4435C117.581 50.4095 116.975 49.7152 116 49.7152C115.04 49.7152 114.419 50.3947 114.242 51.4435H117.713ZM121.599 48.0016H123.962V49.1834C124.509 48.4891 125.218 47.8538 126.414 47.8538C127.493 47.8538 128.32 48.3413 128.748 49.1686C129.472 48.3118 130.344 47.8538 131.481 47.8538C133.239 47.8538 134.288 48.9027 134.288 50.9117V56.3184H131.925V51.6799C131.925 50.5572 131.422 49.9958 130.551 49.9958C129.664 49.9958 129.118 50.572 129.118 51.6799V56.3184H126.754V51.6799C126.754 50.5572 126.252 49.9958 125.38 49.9958C124.494 49.9958 123.947 50.572 123.947 51.6799V56.3184H121.584V48.0016H121.599ZM135.928 52.1083V52.0788C135.928 49.7595 137.582 47.8391 139.946 47.8391C142.664 47.8391 143.905 49.9515 143.905 52.256C143.905 52.4333 143.89 52.6549 143.875 52.8617H138.218C138.439 53.9105 139.178 54.4571 140.212 54.4571C140.98 54.4571 141.541 54.2207 142.191 53.6299L143.506 54.7969C142.753 55.7423 141.66 56.3184 140.182 56.3184C137.73 56.3184 135.928 54.6048 135.928 52.1083ZM141.66 51.4288C141.527 50.3947 140.921 49.7004 139.946 49.7004C138.986 49.7004 138.365 50.3799 138.188 51.4288H141.66ZM145.811 53.8071V49.8333H144.806V47.7948H145.811V45.6528H148.189V47.7948H150.168V49.8333H148.204V53.4083C148.204 53.9548 148.44 54.2207 148.972 54.2207C149.415 54.2207 149.799 54.1173 150.139 53.9253V55.8309C149.637 56.1264 149.061 56.3184 148.263 56.3184C146.8 56.3184 145.811 55.7423 145.811 53.8071ZM151.956 47.9425H154.349V49.6413C154.837 48.4743 155.619 47.7209 157.038 47.78V50.2913H156.905C155.309 50.2913 154.334 51.2515 154.334 53.2753V56.3923H151.941V47.9425H151.956ZM164.645 47.8538H167.186L163.877 56.6877C163.212 58.4457 162.503 59.0956 161.041 59.0956C160.155 59.0956 159.505 58.8741 158.869 58.5047L159.682 56.7321C160.007 56.9241 160.406 57.0718 160.731 57.0718C161.144 57.0718 161.381 56.9389 161.588 56.5105L158.205 47.8538H160.79L162.755 53.7185L164.645 47.8538Z" fill="white"/>
</svg>
