<svg width="190" height="89" viewBox="0 0 190 89" fill="none" xmlns="http://www.w3.org/2000/svg">
<rect width="190" height="88" transform="translate(0 0.414795)" fill="white"/>
<path d="M72.9387 45.5978C72.9387 41.4589 70.3676 37.8217 66.5004 36.4212C66.6677 35.5432 66.7513 34.6652 66.7513 33.7664C66.7513 26.0531 60.4803 19.782 52.7879 19.782C48.2727 19.782 44.0919 21.9351 41.4581 25.5723C40.1621 24.5689 38.5735 24.0255 36.9221 24.0255C32.825 24.0255 29.5014 27.3491 29.5014 31.4462C29.5014 32.345 29.6686 33.223 29.9613 34.0382C26.115 35.4178 23.4812 39.1177 23.4812 43.2357C23.4812 47.3955 26.0732 51.0327 29.9404 52.4333C29.7731 53.2903 29.6895 54.1891 29.6895 55.0879C29.6895 62.7805 35.9397 69.0305 43.6321 69.0305C48.1473 69.0305 52.3279 66.8566 54.9408 63.2193C56.2369 64.2436 57.8256 64.808 59.4769 64.808C63.5739 64.808 66.8977 61.4844 66.8977 57.3873C66.8977 56.4885 66.7304 55.6105 66.4377 54.7952C70.2839 53.4157 72.9387 49.7158 72.9387 45.5978Z" fill="white"/>
<path d="M42.9209 40.9991L53.7488 45.9323L64.6605 36.3586C64.8277 35.5642 64.8904 34.7908 64.8904 33.9546C64.8904 27.2237 59.4137 21.747 52.6828 21.747C48.6485 21.747 44.9067 23.7328 42.6282 27.0565L40.8097 36.4839L42.9209 40.9991Z" fill="#FED10A"/>
<path d="M31.7174 52.4543C31.5501 53.2487 31.4874 54.0639 31.4874 54.9C31.4874 61.6518 36.9851 67.1285 43.7368 67.1285C47.7921 67.1285 51.5756 65.1218 53.8542 61.7772L55.6518 52.3917L53.2479 47.7928L42.3781 42.8387L31.7174 52.4543Z" fill="#24BBB1"/>
<path d="M31.6539 33.7247L39.0747 35.4805L40.7051 27.0565C39.7018 26.2831 38.4476 25.865 37.1516 25.865C33.9324 25.865 31.2986 28.4779 31.2986 31.718C31.2986 32.4077 31.424 33.0976 31.6539 33.7247Z" fill="#EF5098"/>
<path d="M31.0069 35.5015C27.7042 36.5883 25.3839 39.7657 25.3839 43.2566C25.3839 46.6638 27.4952 49.6949 30.6516 50.9073L41.0615 41.5008L39.1593 37.4246L31.0069 35.5015Z" fill="#1BA9F5"/>
<path d="M55.7355 61.7772C56.7598 62.5506 57.9931 62.9896 59.2682 62.9896C62.4874 62.9896 65.1212 60.3766 65.1212 57.1367C65.1212 56.426 64.9958 55.7361 64.7658 55.109L57.366 53.374L55.7355 61.7772Z" fill="#93C83E"/>
<path d="M57.24 51.4301L65.3924 53.3323C68.7161 52.2453 71.0153 49.068 71.0153 45.5562C71.0153 42.1699 68.9042 39.1179 65.7477 37.9265L55.0869 47.2703L57.24 51.4301Z" fill="#0077CC"/>
<path fill-rule="evenodd" clip-rule="evenodd" d="M97.8144 56.5092V32.0522H100.365V56.5092H97.8144ZM92.63 54.3771L93.6125 54.2726L93.6752 56.2794C91.0832 56.6347 88.8674 56.8228 87.0279 56.8228C84.5822 56.8228 82.8472 56.1121 81.823 54.6907C80.7987 53.2693 80.297 51.0535 80.297 48.0643C80.297 42.0858 82.68 39.0967 87.4251 39.0967C89.7245 39.0967 91.4385 39.7447 92.5673 41.0198C93.6961 42.295 94.2604 44.3226 94.2604 47.061L94.1142 49.005H82.8681C82.8681 50.8862 83.2025 52.2868 83.8924 53.1856C84.5822 54.0844 85.7528 54.5444 87.446 54.5444C89.1601 54.5861 90.8742 54.5234 92.63 54.3771ZM91.7103 46.9983C91.7103 44.9079 91.3758 43.4238 90.7069 42.5667C90.0381 41.7097 88.951 41.2707 87.446 41.2707C85.9409 41.2707 84.7912 41.7305 84.0388 42.6294C83.2862 43.5282 82.8891 44.9915 82.8681 46.9983H91.7103ZM116.481 52.9975V44.6152C116.481 42.7339 116.042 41.3334 115.143 40.4554C114.265 39.5566 112.865 39.1176 110.942 39.1176H104.399V41.3751H111.109C111.966 41.3751 112.656 41.626 113.157 42.1277C113.659 42.6294 113.91 43.4655 113.91 44.6152V46.0784L108.559 46.5801C106.761 46.7474 105.444 47.249 104.608 48.0224C103.772 48.7959 103.354 50.0292 103.354 51.6806C103.354 53.3529 103.772 54.628 104.587 55.5059C105.402 56.4048 106.594 56.8438 108.162 56.8438C110.21 56.8438 112.238 56.4675 114.286 55.5687C115.068 56.3137 116.292 56.3004 117.779 56.2843C118.003 56.2818 118.232 56.2794 118.467 56.2794L118.592 54.0217C118.592 54.0217 116.481 53.8546 116.481 52.9975ZM108.58 54.6907C106.845 54.6907 105.988 53.6454 105.988 51.5552C105.988 50.6145 106.197 49.8829 106.657 49.3812C107.116 48.8795 107.848 48.5868 108.872 48.5033L113.91 48.0224V53.6454L113.137 53.9173C111.652 54.4398 110.126 54.6907 108.58 54.6907ZM126.452 41.3961C123.985 41.3961 122.731 42.2531 122.731 43.9881C122.731 44.7825 123.024 45.3469 123.588 45.6813C124.153 46.0158 125.449 46.3502 127.476 46.7056C129.504 47.061 130.925 47.5417 131.762 48.1897C132.598 48.8169 133.016 50.0084 133.016 51.7642C133.016 53.5202 132.451 54.7953 131.323 55.6104C130.194 56.4257 128.563 56.8438 126.389 56.8438C124.989 56.8438 120.286 56.3211 120.286 56.3211L120.432 54.1054C120.854 54.1447 121.258 54.183 121.645 54.2195C123.728 54.4166 125.299 54.5653 126.41 54.5653C127.727 54.5653 128.731 54.3563 129.42 53.9382C130.11 53.5202 130.466 52.8095 130.466 51.8269C130.466 50.8445 130.173 50.1755 129.588 49.8202C129.002 49.4648 127.706 49.1304 125.699 48.8169C123.693 48.5033 122.271 48.0434 121.435 47.4163C120.599 46.8102 120.181 45.6605 120.181 44.0091C120.181 42.3577 120.766 41.1244 121.937 40.33C123.107 39.5358 124.571 39.1386 126.306 39.1386C127.685 39.1386 132.493 39.4939 132.493 39.4939V41.7306C131.651 41.6818 130.859 41.6285 130.125 41.579C128.655 41.4798 127.414 41.3961 126.452 41.3961ZM139.934 41.6887H145.348V39.452H139.934V34.2471H137.405V39.473H134.98V41.6887H137.405V50.6563C137.405 53.0812 137.739 54.7324 138.429 55.5895C139.119 56.4465 140.331 56.8855 142.108 56.8855C142.902 56.8855 144.052 56.7601 145.578 56.5093L145.411 54.398L142.38 54.6071C141.313 54.6071 140.645 54.2936 140.352 53.6873C140.08 53.0812 139.934 51.7851 139.934 49.8411V41.6887ZM148.901 35.6059V32.6585H151.452V35.6268L148.901 35.6059ZM148.901 56.5093V39.473H151.452V56.5093H148.901ZM166.356 39.5357C164.558 39.2639 163.283 39.1176 162.531 39.1176C159.981 39.1176 158.162 39.7866 157.054 41.0825C155.967 42.3785 155.423 44.657 155.423 47.8971C155.423 51.1371 155.946 53.4364 156.95 54.7951C157.952 56.1539 159.792 56.8438 162.447 56.8438C163.493 56.8438 165.08 56.6765 167.193 56.3629L167.088 54.2517L163.074 54.5653C161.025 54.5653 159.688 54.0844 159.04 53.102C158.392 52.1196 158.078 50.3845 158.078 47.8971C158.078 45.4096 158.434 43.6955 159.124 42.7757C159.813 41.856 161.13 41.3961 163.053 41.3961C163.91 41.3961 165.248 41.5007 167.067 41.7097L167.172 39.6402L166.356 39.5357Z" fill="black"/>
</svg>
