<svg width="40" height="40" viewBox="0 0 40 40" fill="none" xmlns="http://www.w3.org/2000/svg">
<path d="M22.5 5H17.5C16.8096 5 16.25 5.55964 16.25 6.25V11.25C16.25 11.9404 16.8096 12.5 17.5 12.5H22.5C23.1904 12.5 23.75 11.9404 23.75 11.25V6.25C23.75 5.55964 23.1904 5 22.5 5Z" stroke="#2ED960" style="stroke:#2ED960;stroke:color(display-p3 0.1806 0.8500 0.3779);stroke-opacity:1;" stroke-width="3" stroke-linecap="round" stroke-linejoin="round"/>
<path d="M12.5 26.25H7.5C6.80964 26.25 6.25 26.8096 6.25 27.5V32.5C6.25 33.1904 6.80964 33.75 7.5 33.75H12.5C13.1904 33.75 13.75 33.1904 13.75 32.5V27.5C13.75 26.8096 13.1904 26.25 12.5 26.25Z" stroke="#2ED960" style="stroke:#2ED960;stroke:color(display-p3 0.1806 0.8500 0.3779);stroke-opacity:1;" stroke-width="3" stroke-linecap="round" stroke-linejoin="round"/>
<path d="M20 12.5V18.75" stroke="#2ED960" style="stroke:#2ED960;stroke:color(display-p3 0.1806 0.8500 0.3779);stroke-opacity:1;" stroke-width="3" stroke-linecap="round" stroke-linejoin="round"/>
<path d="M10 26.25V18.75" stroke="#2ED960" style="stroke:#2ED960;stroke:color(display-p3 0.1806 0.8500 0.3779);stroke-opacity:1;" stroke-width="3" stroke-linecap="round" stroke-linejoin="round"/>
<path d="M30 21.875V18.75" stroke="#2ED960" style="stroke:#2ED960;stroke:color(display-p3 0.1806 0.8500 0.3779);stroke-opacity:1;" stroke-width="3" stroke-linecap="round" stroke-linejoin="round"/>
<path d="M3.75 18.75H36.25" stroke="#2ED960" style="stroke:#2ED960;stroke:color(display-p3 0.1806 0.8500 0.3779);stroke-opacity:1;" stroke-width="3" stroke-linecap="round" stroke-linejoin="round"/>
<path d="M26.25 26.25L33.75 33.75" stroke="#2ED960" style="stroke:#2ED960;stroke:color(display-p3 0.1806 0.8500 0.3779);stroke-opacity:1;" stroke-width="3" stroke-linecap="round" stroke-linejoin="round"/>
<path d="M33.75 26.25L26.25 33.75" stroke="#2ED960" style="stroke:#2ED960;stroke:color(display-p3 0.1806 0.8500 0.3779);stroke-opacity:1;" stroke-width="3" stroke-linecap="round" stroke-linejoin="round"/>
</svg>
