<svg width="40" height="40" viewBox="0 0 40 40" fill="none" xmlns="http://www.w3.org/2000/svg">
<path d="M11.25 26.875H10C8.22962 26.8766 6.51572 26.2518 5.16164 25.1113C3.80757 23.9708 2.90061 22.388 2.60128 20.6431C2.30195 18.8981 2.62954 17.1036 3.52608 15.577C4.42262 14.0504 5.83031 12.8901 7.50002 12.3016V11.25C7.50002 9.5924 8.1585 8.00269 9.33061 6.83058C10.5027 5.65848 12.0924 5 13.75 5C15.4076 5 16.9973 5.65848 18.1694 6.83058C19.3415 8.00269 20 9.5924 20 11.25V27.5" stroke="#2ED960" style="stroke:#2ED960;stroke:color(display-p3 0.1806 0.8500 0.3779);stroke-opacity:1;" stroke-width="3" stroke-linecap="round" stroke-linejoin="round"/>
<path d="M28.75 26.875H30C31.7704 26.8766 33.4843 26.2518 34.8384 25.1113C36.1925 23.9708 37.0994 22.388 37.3987 20.6431C37.6981 18.8981 37.3705 17.1036 36.4739 15.577C35.5774 14.0504 34.1697 12.8901 32.5 12.3016V11.25C32.5 9.5924 31.8415 8.00269 30.6694 6.83058C29.4973 5.65848 27.9076 5 26.25 5C24.5924 5 23.0027 5.65848 21.8306 6.83058C20.6585 8.00269 20 9.5924 20 11.25" stroke="#2ED960" style="stroke:#2ED960;stroke:color(display-p3 0.1806 0.8500 0.3779);stroke-opacity:1;" stroke-width="3" stroke-linecap="round" stroke-linejoin="round"/>
<path d="M30.625 18.125C29.4647 18.125 28.3519 17.6641 27.5314 16.8436C26.7109 16.0231 26.25 14.9103 26.25 13.75V13.125" stroke="#2ED960" style="stroke:#2ED960;stroke:color(display-p3 0.1806 0.8500 0.3779);stroke-opacity:1;" stroke-width="3" stroke-linecap="round" stroke-linejoin="round"/>
<path d="M9.375 18.125C10.5353 18.125 11.6481 17.6641 12.4686 16.8436C13.2891 16.0231 13.75 14.9103 13.75 13.75V13.125" stroke="#2ED960" style="stroke:#2ED960;stroke:color(display-p3 0.1806 0.8500 0.3779);stroke-opacity:1;" stroke-width="3" stroke-linecap="round" stroke-linejoin="round"/>
<path d="M23.75 21.7703C22.7173 22.221 21.8257 22.9424 21.1694 23.8584C20.5132 24.7743 20.1168 25.8506 20.0221 26.9734C19.9274 28.0961 20.138 29.2236 20.6316 30.2365C21.1253 31.2493 21.8835 32.11 22.8261 32.7272C23.7688 33.3445 24.8607 33.6954 25.9865 33.7429C27.1122 33.7904 28.2299 33.5327 29.2212 32.9971C30.2125 32.4615 31.0405 31.6678 31.6177 30.7001C32.1949 29.7324 32.4997 28.6267 32.5 27.5V26.4484" stroke="#2ED960" style="stroke:#2ED960;stroke:color(display-p3 0.1806 0.8500 0.3779);stroke-opacity:1;" stroke-width="3" stroke-linecap="round" stroke-linejoin="round"/>
<path d="M16.25 21.7703C17.2827 22.221 18.1743 22.9424 18.8306 23.8584C19.4868 24.7743 19.8832 25.8506 19.9779 26.9734C20.0726 28.0961 19.862 29.2236 19.3684 30.2365C18.8748 31.2493 18.1165 32.11 17.1739 32.7272C16.2312 33.3445 15.1393 33.6954 14.0135 33.7429C12.8878 33.7904 11.7701 33.5327 10.7788 32.9971C9.78755 32.4615 8.9595 31.6678 8.38231 30.7001C7.80512 29.7324 7.50026 28.6267 7.5 27.5V26.4484" stroke="#2ED960" style="stroke:#2ED960;stroke:color(display-p3 0.1806 0.8500 0.3779);stroke-opacity:1;" stroke-width="3" stroke-linecap="round" stroke-linejoin="round"/>
</svg>
