<svg width="88" height="88" viewBox="0 0 88 88" fill="none" xmlns="http://www.w3.org/2000/svg">
<rect width="87.27" height="87.27" transform="translate(0.334961 0.734619)" fill="#D55C3A"/>
<path d="M43.9702 20.0346C30.4487 20.0346 19.4863 30.9294 19.4863 44.3694C19.4863 57.8091 30.4487 68.7046 43.9702 68.7046C57.4918 68.7046 68.4537 57.8091 68.4537 44.3694C68.4537 30.9294 57.4913 20.0346 43.9702 20.0346ZM43.9702 65.58C40.1231 65.58 37.004 63.0256 37.004 59.8756H50.9365C50.9365 63.0252 47.8174 65.58 43.9702 65.58ZM55.4762 57.9864H32.463V53.8388H55.4766L55.4762 57.9864ZM55.3937 51.704H32.5287C32.4526 51.6168 32.3749 51.5309 32.3014 51.4425C29.9458 48.5995 29.391 47.1153 28.8522 45.6028C28.8432 45.553 31.7086 46.1847 33.7406 46.6391C33.7406 46.6391 34.7862 46.8796 36.3149 47.1566C34.8472 45.4465 33.9757 43.2726 33.9757 41.0506C33.9757 36.1725 37.7398 31.9098 36.3819 28.4643C37.7036 28.5712 39.1173 31.2368 39.2128 35.4047C40.6178 33.4747 41.2059 29.9502 41.2059 27.7892C41.2059 25.5518 42.6892 22.9528 44.1729 22.8639C42.8503 25.0304 44.5155 26.8878 45.9958 31.4954C46.551 33.2261 46.4801 36.1386 46.9087 37.9856C47.0509 34.1494 47.7145 28.5519 50.1631 26.6194C49.0829 29.0531 50.3229 32.0983 51.1711 33.5623C52.5394 35.9243 53.369 37.7138 53.369 41.0983C53.369 43.3675 52.526 45.504 51.1041 47.1742C52.7209 46.8727 53.8374 46.6008 53.8374 46.6008L59.0878 45.5826C59.0883 45.5822 58.3252 48.7009 55.3937 51.704Z" fill="white"/>
</svg>
