<svg width="40" height="40" viewBox="0 0 40 40" fill="none" xmlns="http://www.w3.org/2000/svg">
<path d="M18.4766 16.5734L16.5234 12.1765" stroke="#2ED960" style="stroke:#2ED960;stroke:color(display-p3 0.1806 0.8500 0.3779);stroke-opacity:1;" stroke-width="3" stroke-linecap="round" stroke-linejoin="round"/>
<path d="M27.6922 17.4359L23.5579 18.814" stroke="#2ED960" style="stroke:#2ED960;stroke:color(display-p3 0.1806 0.8500 0.3779);stroke-opacity:1;" stroke-width="3" stroke-linecap="round" stroke-linejoin="round"/>
<path d="M28.2906 26.4484L22.9594 22.3015" stroke="#2ED960" style="stroke:#2ED960;stroke:color(display-p3 0.1806 0.8500 0.3779);stroke-opacity:1;" stroke-width="3" stroke-linecap="round" stroke-linejoin="round"/>
<path d="M17.1968 22.4906L11.5531 27.5093" stroke="#2ED960" style="stroke:#2ED960;stroke:color(display-p3 0.1806 0.8500 0.3779);stroke-opacity:1;" stroke-width="3" stroke-linecap="round" stroke-linejoin="round"/>
<path d="M20 23.75C22.0711 23.75 23.75 22.0711 23.75 20C23.75 17.9289 22.0711 16.25 20 16.25C17.9289 16.25 16.25 17.9289 16.25 20C16.25 22.0711 17.9289 23.75 20 23.75Z" stroke="#2ED960" style="stroke:#2ED960;stroke:color(display-p3 0.1806 0.8500 0.3779);stroke-opacity:1;" stroke-width="3" stroke-linecap="round" stroke-linejoin="round"/>
<path d="M15 12.5C17.0711 12.5 18.75 10.8211 18.75 8.75C18.75 6.67893 17.0711 5 15 5C12.9289 5 11.25 6.67893 11.25 8.75C11.25 10.8211 12.9289 12.5 15 12.5Z" stroke="#2ED960" style="stroke:#2ED960;stroke:color(display-p3 0.1806 0.8500 0.3779);stroke-opacity:1;" stroke-width="3" stroke-linecap="round" stroke-linejoin="round"/>
<path d="M31.25 19.375C33.3211 19.375 35 17.6961 35 15.625C35 13.5539 33.3211 11.875 31.25 11.875C29.1789 11.875 27.5 13.5539 27.5 15.625C27.5 17.6961 29.1789 19.375 31.25 19.375Z" stroke="#2ED960" style="stroke:#2ED960;stroke:color(display-p3 0.1806 0.8500 0.3779);stroke-opacity:1;" stroke-width="3" stroke-linecap="round" stroke-linejoin="round"/>
<path d="M31.25 33.125C33.3211 33.125 35 31.4461 35 29.375C35 27.3039 33.3211 25.625 31.25 25.625C29.1789 25.625 27.5 27.3039 27.5 29.375C27.5 31.4461 29.1789 33.125 31.25 33.125Z" stroke="#2ED960" style="stroke:#2ED960;stroke:color(display-p3 0.1806 0.8500 0.3779);stroke-opacity:1;" stroke-width="3" stroke-linecap="round" stroke-linejoin="round"/>
<path d="M8.75 33.75C10.8211 33.75 12.5 32.0711 12.5 30C12.5 27.9289 10.8211 26.25 8.75 26.25C6.67893 26.25 5 27.9289 5 30C5 32.0711 6.67893 33.75 8.75 33.75Z" stroke="#2ED960" style="stroke:#2ED960;stroke:color(display-p3 0.1806 0.8500 0.3779);stroke-opacity:1;" stroke-width="3" stroke-linecap="round" stroke-linejoin="round"/>
</svg>
