<svg width="88" height="88" viewBox="0 0 88 88" fill="none" xmlns="http://www.w3.org/2000/svg">
<rect width="87.27" height="87.27" transform="translate(0.714966 0.19458)" fill="#632CA6"/>
<path fill-rule="evenodd" clip-rule="evenodd" d="M21.6432 69.8682H18.26V62.0797H21.6432C24.0807 62.0797 25.3011 63.3072 25.3011 65.7616C25.3011 68.4978 24.0807 69.8682 21.6432 69.8682ZM19.7067 68.6146H21.4247C23.0443 68.6146 23.8531 67.6636 23.8531 65.7603C23.8531 64.1401 23.0443 63.33 21.4247 63.33H19.7067V68.6146ZM26.8169 69.8682H25.3317L28.6445 62.0797H30.1995L33.5846 69.8682H32.0284L31.0461 67.7438H28.546L29.043 66.4922H30.6645L29.3868 63.5662L26.8169 69.8682ZM32.7667 62.0797H38.6892V63.332H36.4513V69.8682H35.0052V63.332H32.7661L32.7667 62.0797ZM39.4327 69.8682H37.9475L41.261 62.0797H42.8159L46.2005 69.8682H44.6442L43.6619 67.7438H41.1618L41.6575 66.4922H43.279L42.0013 63.5662L39.4327 69.8682ZM50.5432 69.8682H47.1599V62.0797H50.5432C52.9819 62.0797 54.201 63.3072 54.201 65.7616C54.201 68.4978 52.9819 69.8682 50.5432 69.8682ZM48.606 68.6146H50.3253C51.9435 68.6146 52.7543 67.6636 52.7543 65.7603C52.7543 64.1401 51.9435 63.33 50.3253 63.33H48.606V68.6146ZM55.18 65.9847C55.18 63.3437 56.4878 62.0236 59.1 62.0236C61.6725 62.0236 62.9581 63.3437 62.9581 65.9847C62.9581 68.61 61.6725 69.9243 59.1 69.9243C56.6032 69.9236 55.2981 68.61 55.18 65.9847ZM59.1 68.6687C60.6713 68.6687 61.4573 67.7634 61.4573 65.9514C61.4573 64.1675 60.6713 63.2746 59.1 63.2746C57.4877 63.2746 56.6821 64.1675 56.6821 65.9514C56.6828 67.7634 57.4883 68.6687 59.1 68.6687ZM68.9934 66.7165V68.5396C68.6594 68.627 68.36 68.6694 68.0985 68.6694C66.3289 68.6694 65.4458 67.7347 65.4458 65.8647C65.4458 64.1382 66.3837 63.2753 68.2563 63.2753C69.039 63.2753 69.7663 63.4207 70.4394 63.7116V62.4038C69.7669 62.1501 69.0032 62.0223 68.1474 62.0223C65.346 62.0223 63.9443 63.302 63.9443 65.864C63.9443 68.5683 65.3218 69.923 68.0763 69.923C69.024 69.923 69.8113 69.7847 70.4401 69.5082V65.4336H68.1044L67.6158 66.7152H68.9934V66.7165Z" fill="white"/>
<path fill-rule="evenodd" clip-rule="evenodd" d="M57.4029 47.1268L53.9603 44.8557L51.0884 49.653L47.7483 48.6766L44.8073 53.1653L44.9579 54.5781L60.9492 51.6312L60.0204 41.6394L57.4029 47.1268ZM42.4905 42.8193L45.0564 42.4665C45.4713 42.653 45.7602 42.7241 46.2579 42.8507C47.0334 43.0522 47.9302 43.2459 49.2589 42.5767C49.568 42.4234 50.2125 41.8344 50.4727 41.4985L60.9844 39.592L62.0567 52.5705L44.0474 55.8161L42.4905 42.8193ZM62.0163 38.1427L60.9785 38.3403L58.9852 17.7449L25.0193 21.6832L29.2041 55.6406L33.1802 55.0634C32.8626 54.6101 32.3682 54.0615 31.5242 53.3597C30.3534 52.3872 30.7669 50.7344 31.4583 49.6908C32.3721 47.9278 37.0807 45.6873 36.8139 42.8696C36.7181 41.8449 36.5556 40.5117 35.604 39.5972C35.5681 39.9768 35.6327 40.3414 35.6327 40.3414C35.6327 40.3414 35.242 39.8431 35.0476 39.1641C34.8546 38.9032 34.7026 38.8204 34.4971 38.4721C34.3504 38.8745 34.37 39.3415 34.37 39.3415C34.37 39.3415 34.0504 38.5869 33.9988 37.9496C33.8097 38.2347 33.7621 38.776 33.7621 38.776C33.7621 38.776 33.3472 37.5863 33.4418 36.9452C33.2526 36.3875 32.6911 35.2806 32.8496 32.7656C33.886 33.4915 36.1682 33.3193 37.0572 32.0089C37.352 31.5745 37.5549 30.3901 36.9098 28.055C36.4956 26.5581 35.4703 24.3287 35.0705 23.4827L35.0229 23.5173C35.2335 24.1989 35.6679 25.6267 35.8349 26.32C36.3398 28.4203 36.4748 29.1521 36.238 30.1207C36.0365 30.9627 35.5531 31.5132 34.3282 32.129C33.1033 32.7466 31.4772 31.2432 31.3748 31.1604C30.1845 30.212 29.2635 28.6655 29.1611 27.9135C29.0541 27.091 29.6353 26.5972 29.9281 25.9247C29.5087 26.0441 29.0417 26.2574 29.0417 26.2574C29.0417 26.2574 29.5994 25.6802 30.2869 25.1812C30.5719 24.9927 30.7389 24.8727 31.0389 24.6235C30.6045 24.6163 30.2516 24.6287 30.2516 24.6287C30.2516 24.6287 30.9763 24.2374 31.727 23.9523C31.1778 23.9282 30.6515 23.9484 30.6515 23.9484C30.6515 23.9484 32.2684 23.2251 33.5449 22.6948C34.4228 22.3348 35.2805 22.4411 35.7625 23.1383C36.3952 24.0515 37.0598 24.5472 38.468 24.8544C39.3329 24.4709 39.5951 24.2746 40.6818 23.9778C41.638 22.9257 42.3887 22.79 42.3887 22.79C42.3887 22.79 42.0163 23.1318 41.9165 23.6686C42.4585 23.2414 43.0527 22.8846 43.0527 22.8846C43.0527 22.8846 42.8225 23.1683 42.6079 23.6197L42.6574 23.6941C43.2901 23.3144 44.0337 23.0157 44.0337 23.0157C44.0337 23.0157 43.8211 23.2844 43.5719 23.6321C44.0494 23.6282 45.0166 23.6523 45.3923 23.6947C47.6093 23.7436 48.0692 21.3277 48.9197 21.0244C49.9848 20.6441 50.461 20.4139 52.2762 22.1971C53.8331 23.7286 55.0502 26.4681 54.4456 27.0818C53.9388 27.5912 52.9395 26.8829 51.832 25.5027C51.2469 24.7716 50.8041 23.9073 50.5966 22.8089C50.4218 21.8821 49.7409 21.3446 49.7409 21.3446C49.7409 21.3446 50.1355 22.2252 50.1355 23.0007C50.1355 23.4247 50.1883 25.009 50.868 25.8987C50.8008 26.0285 50.7695 26.5418 50.6951 26.6403C49.9046 25.6847 48.2068 25.0012 47.9296 24.7996C48.8669 25.5673 51.0206 27.331 51.8477 29.0223C52.6304 30.621 52.1692 32.0866 52.5651 32.4655C52.678 32.5738 54.2479 34.5305 54.5499 35.5135C55.077 37.2263 54.5812 39.0272 53.8918 40.1438L51.9657 40.4438C51.6839 40.3656 51.4941 40.3264 51.2417 40.1803C51.3813 39.9338 51.6579 39.3194 51.6605 39.1922L51.5515 39.0017C50.9521 39.851 49.9483 40.6754 49.1141 41.1489C48.0222 41.7679 46.764 41.672 45.9448 41.419C43.6202 40.7021 41.4214 39.1309 40.8912 38.718C40.8912 38.718 40.8748 39.0474 40.9746 39.1217C41.5604 39.7831 42.9034 40.9787 44.202 41.8129L41.4345 42.1175L42.7429 52.3037C42.163 52.3866 42.0724 52.4277 41.4377 52.5177C40.8781 50.5407 39.8078 49.2499 38.6376 48.4978C37.6058 47.8345 36.1826 47.6851 34.8207 47.9552L34.7333 48.0569C35.6803 47.9584 36.7983 48.0954 37.9469 48.8227C39.074 49.5356 39.9826 51.3769 40.3172 52.485C40.7457 53.9017 41.0418 55.4176 39.8886 57.0241C39.0688 58.1661 36.675 58.7969 34.7404 57.4317C35.257 58.2627 35.9549 58.9417 36.8955 59.0695C38.2913 59.2593 39.616 59.0167 40.5279 58.0807C41.306 57.2804 41.7195 55.6067 41.6106 53.8443L42.8427 53.6656L43.2875 56.829L63.6801 54.3733L62.0163 38.1427ZM49.6091 29.5519C49.5524 29.6817 49.4624 29.7672 49.5967 30.1898L49.6046 30.2139L49.6261 30.2687L49.6822 30.3953C49.9242 30.8903 50.1896 31.3567 50.6345 31.5954C50.7493 31.5758 50.8686 31.5628 50.9919 31.5569C51.4093 31.5387 51.6729 31.6045 51.8392 31.6946C51.8542 31.6111 51.8574 31.4898 51.8483 31.3104C51.8157 30.6836 51.9722 29.6178 50.7675 29.0569C50.3129 28.8462 49.675 28.9108 49.4624 29.1743C49.5009 29.1795 49.5354 29.1873 49.5628 29.1964C49.885 29.308 49.6672 29.4189 49.6091 29.5519ZM52.9865 35.4C52.8286 35.3126 52.0903 35.3472 51.5711 35.4091C50.5823 35.5259 49.5146 35.8683 49.2811 36.0509C48.8558 36.3797 49.0489 36.9524 49.3632 37.1878C50.2444 37.8459 51.0167 38.2875 51.8314 38.1799C52.3316 38.114 52.7732 37.3215 53.0856 36.6027C53.2996 36.1077 53.2996 35.5735 52.9865 35.4ZM44.2326 30.3274C44.5111 30.0626 42.844 29.715 41.5499 30.5975C40.5957 31.2484 40.565 32.6442 41.4788 33.4354C41.5702 33.5137 41.6458 33.5691 41.7156 33.6148C41.9824 33.4889 42.2863 33.3624 42.6366 33.2489C43.2275 33.0571 43.7193 32.958 44.1231 32.9051C44.3161 32.6892 44.5412 32.309 44.4851 31.6202C44.4081 30.6855 43.7011 30.8336 44.2326 30.3274Z" fill="white"/>
</svg>
