<svg width="88" height="89" viewBox="0 0 88 89" fill="none" xmlns="http://www.w3.org/2000/svg">
<rect width="87.27" height="87.27" transform="translate(0.714966 0.9646)" fill="black"/>
<path d="M44.2227 13.5996C32.4672 13.5996 22.9467 23.1202 22.9467 34.8756C22.9467 44.2907 29.0371 52.2424 37.4939 55.0601C38.5577 55.2469 38.9555 54.6087 38.9555 54.0499C38.9555 53.5448 38.9296 51.8705 38.9296 50.087C33.5847 51.0713 32.2026 48.7846 31.7771 47.5894C31.5366 46.977 30.5006 45.0881 29.594 44.583C28.8503 44.1834 27.7865 43.1992 29.5681 43.1733C31.2443 43.1474 32.4413 44.7162 32.8409 45.3545C34.7558 48.5737 37.814 47.6671 39.0369 47.1084C39.2219 45.7264 39.7806 44.7958 40.393 44.263C35.6586 43.732 30.7133 41.8967 30.7133 33.7582C30.7133 31.4456 31.5366 29.5307 32.8927 28.0414C32.68 27.5086 31.9362 25.3273 33.1055 22.4023C33.1055 22.4023 34.8871 21.8436 38.9573 24.5836C40.6594 24.1044 42.4669 23.8657 44.2763 23.8657C46.0839 23.8657 47.8932 24.1063 49.5953 24.5836C53.6655 21.8177 55.4453 22.4023 55.4453 22.4023C56.6164 25.3273 55.8708 27.5086 55.6581 28.0414C57.0142 29.5307 57.8393 31.4178 57.8393 33.7582C57.8393 41.9226 52.8663 43.7301 48.1319 44.263C48.9034 44.929 49.5676 46.2056 49.5676 48.1999C49.5676 51.0454 49.5417 53.3321 49.5417 54.0499C49.5417 54.6087 49.9413 55.2747 51.0032 55.0619C59.41 52.2424 65.4987 44.263 65.4987 34.8756C65.4987 23.1202 55.9781 13.5996 44.2227 13.5996Z" fill="white"/>
<g clip-path="url(#clip0_656_1713)">
<path d="M39.4738 72.859H39.4502C39.4604 72.859 39.4675 72.8699 39.4777 72.8723L39.4856 72.8707L39.4738 72.859ZM39.4777 72.8723C39.3676 72.873 39.0923 72.9291 38.8005 72.9291C37.8803 72.9291 37.5618 72.512 37.5618 71.9688V68.3488H39.4376C39.5438 68.3488 39.6263 68.2554 39.6263 68.1286V66.1622C39.6263 66.0587 39.532 65.9661 39.4376 65.9661H37.5626V63.525C37.5626 63.4324 37.5036 63.3748 37.3974 63.3748H34.8492C34.7423 63.3748 34.6841 63.4324 34.6841 63.525V66.0361C34.6841 66.0361 33.3974 66.3481 33.3148 66.3598C33.2704 66.3704 33.231 66.3958 33.2031 66.4316C33.1752 66.4674 33.1605 66.5115 33.1614 66.5567V68.1294C33.1614 68.257 33.2558 68.3488 33.362 68.3488H34.6715V72.1431C34.6715 74.9655 36.677 75.2542 38.0455 75.2542C38.6715 75.2542 39.4266 75.0581 39.5445 74.9997C39.6153 74.9764 39.6507 74.8955 39.6507 74.8145V73.0792C39.6516 73.0302 39.6348 72.9824 39.6032 72.9446C39.5716 72.9068 39.5273 72.8814 39.4785 72.873L39.4777 72.8723ZM67.4364 70.3261C67.4364 68.2329 66.5752 67.955 65.6668 68.0477C64.959 68.0943 64.3927 68.4406 64.3927 68.4406V72.512C64.3927 72.512 64.9708 72.9057 65.832 72.9291C67.0471 72.9633 67.4364 72.5353 67.4364 70.3261ZM70.3039 70.1409C70.3039 74.1088 68.9944 75.2418 66.705 75.2418C64.7702 75.2418 63.7321 74.2823 63.7321 74.2823C63.7321 74.2823 63.6849 74.8138 63.6259 74.8838C63.5905 74.9531 63.5315 74.9756 63.4607 74.9756H61.7147C61.5968 74.9756 61.4898 74.883 61.4898 74.7795L61.5134 61.929C61.515 61.8771 61.5367 61.8277 61.5741 61.7912C61.6114 61.7547 61.6615 61.7338 61.714 61.7329H64.2276C64.28 61.7338 64.3301 61.7547 64.3675 61.7912C64.4048 61.8277 64.4265 61.8771 64.4281 61.929V66.2898C64.4281 66.2898 65.3955 65.6766 66.8112 65.6766L66.7994 65.6532C68.215 65.6532 70.3039 66.1746 70.3039 70.1409ZM60.0152 65.9661H57.5377C57.408 65.9661 57.3372 66.0587 57.3372 66.1855V72.4777C57.3372 72.4777 56.6875 72.9291 55.8035 72.9291C54.918 72.9291 54.6584 72.5353 54.6584 71.6684V66.1746C54.6568 66.1226 54.6352 66.0731 54.5979 66.0363C54.5606 65.9996 54.5105 65.9783 54.4579 65.977H51.9332C51.8806 65.9781 51.8304 65.9992 51.793 66.0358C51.7556 66.0724 51.7337 66.1218 51.7319 66.1738V72.0848C51.7319 74.6293 53.1838 75.2651 55.1775 75.2651C56.8173 75.2651 58.1504 74.3741 58.1504 74.3741C58.1504 74.3741 58.2102 74.8254 58.2448 74.8955C58.2684 74.9531 58.3517 74.999 58.4335 74.999H60.0152C60.0417 75.0003 60.0683 74.9961 60.0931 74.9867C60.1179 74.9773 60.1405 74.9629 60.1594 74.9443C60.1782 74.9258 60.193 74.9036 60.2027 74.8791C60.2124 74.8546 60.2168 74.8284 60.2157 74.8021L60.2393 66.1622C60.2393 66.0587 60.1449 65.9661 60.0152 65.9661ZM32.0509 65.9544H29.5381C29.4319 65.9544 29.3376 66.0587 29.3376 66.1855V74.6753C29.3376 74.9064 29.4909 74.9873 29.6915 74.9873H31.9565C32.1925 74.9873 32.2515 74.883 32.2515 74.6753V66.1505C32.2495 66.0987 32.2277 66.0496 32.1904 66.0132C32.1532 65.9768 32.1033 65.9557 32.0509 65.9544ZM30.8122 62.0441C29.9038 62.0441 29.1842 62.7499 29.1842 63.6401C29.1842 64.5311 29.9038 65.2362 30.8122 65.2362C31.0236 65.2362 31.2328 65.1948 31.428 65.1146C31.6232 65.0343 31.8004 64.9167 31.9495 64.7685C32.0986 64.6202 32.2166 64.4443 32.2968 64.2508C32.3769 64.0573 32.4177 63.85 32.4166 63.6409C32.4179 63.4317 32.3773 63.2242 32.2972 63.0306C32.2172 62.8369 32.0992 62.6608 31.9501 62.5124C31.801 62.364 31.6237 62.2462 31.4284 62.1659C31.2331 62.0855 31.0237 62.0441 30.8122 62.0441ZM50.2698 61.7547H47.779C47.7265 61.756 47.6766 61.7771 47.6393 61.8137C47.602 61.8503 47.5803 61.8996 47.5785 61.9515V66.6828H43.6736V61.9515C43.6718 61.8996 43.6501 61.8503 43.6128 61.8137C43.5755 61.7771 43.5255 61.756 43.473 61.7547H40.9594C40.9069 61.756 40.857 61.7771 40.8197 61.8137C40.7824 61.8503 40.7607 61.8996 40.7589 61.9515V74.8021C40.7589 74.9056 40.8651 74.9982 40.9594 74.9982H43.473C43.5255 74.9968 43.5755 74.9757 43.6128 74.9391C43.6501 74.9025 43.6718 74.8532 43.6736 74.8013V69.3075H47.5793L47.5557 74.8013C47.5557 74.9056 47.6501 74.9982 47.7562 74.9982H50.269C50.3215 74.9968 50.3715 74.9757 50.4088 74.9391C50.4461 74.9025 50.4678 74.8532 50.4696 74.8013V61.9523C50.4678 61.9004 50.4461 61.8511 50.4088 61.8145C50.3715 61.7779 50.3215 61.7568 50.269 61.7554L50.2698 61.7547ZM28.0045 67.4454V74.0846C28.0045 74.1313 27.9927 74.2115 27.9337 74.2348C27.9337 74.2348 26.459 75.2643 24.028 75.2643C21.0905 75.2651 17.6095 74.3624 17.6095 68.4173C17.6095 62.4721 20.6532 61.2473 23.6269 61.2582C26.1987 61.2582 27.2369 61.8247 27.402 61.929C27.4492 61.9873 27.4728 62.0332 27.4728 62.0908L26.9773 64.1498C26.9773 64.2541 26.8719 64.381 26.7414 64.3467C26.3167 64.2191 25.6796 63.9654 24.1814 63.9654C22.4472 63.9654 20.5832 64.4502 20.5832 68.2788C20.5832 72.1073 22.3528 72.5587 23.6269 72.5587C24.7122 72.5587 25.1015 72.431 25.1015 72.431V69.7713H23.3673C23.2376 69.7713 23.1432 69.6779 23.1432 69.5744V67.4461C23.1432 67.3419 23.2376 67.25 23.3673 67.25H27.7795C27.9101 67.25 28.0045 67.3411 28.0045 67.4454Z" fill="white"/>
</g>
<defs>
<clipPath id="clip0_656_1713">
<rect width="53.4809" height="18.6759" fill="white" transform="translate(17.6095 58.9237)"/>
</clipPath>
</defs>
</svg>
