<svg width="1600" height="246" viewBox="0 0 1600 246" fill="none" xmlns="http://www.w3.org/2000/svg">
<path d="M444.318 59.6173H443.694V60.2418V185.979V186.604H444.318H476.007C486.283 186.604 495.583 185.025 503.964 181.858C512.335 178.695 519.455 174.341 525.448 168.792C531.448 163.237 535.978 156.56 539.173 148.769C542.369 140.975 543.963 132.463 543.963 123.11C543.963 113.756 542.368 105.441 539.174 97.584C535.978 89.7247 531.381 83.0498 525.453 77.4335C519.52 71.8128 512.33 67.5243 503.964 64.3629C495.583 61.1958 486.283 59.6173 476.007 59.6173H444.318ZM414.505 32.046H475.941C490.298 32.046 503.528 34.4518 515.57 39.191C527.627 44.0013 538.034 50.4314 546.8 58.6072C555.563 66.7814 562.3 76.3819 567.141 87.48C571.916 98.5743 574.337 110.449 574.337 123.11C574.337 135.772 571.916 147.647 567.141 158.741C562.3 169.839 555.563 179.44 546.8 187.614C538.034 195.79 527.627 202.22 515.569 207.031C503.529 211.834 490.301 214.175 475.941 214.175H414.505V32.046Z" fill="#061611" stroke="#194439" stroke-width="1.24903"/>
<path d="M655.337 216.724L655.387 216.773C646.547 216.593 638.185 214.846 630.351 211.481C622.054 207.916 614.807 203.058 608.606 196.907C602.409 190.76 597.579 183.511 594.052 175.088C590.593 166.671 588.829 157.668 588.829 147.944C588.829 138.22 590.593 129.218 594.052 120.801C597.579 112.378 602.409 105.129 608.606 98.9814C614.807 92.8301 622.054 87.9721 630.351 84.4077C638.636 80.8488 647.511 79.0995 656.919 79.0995C666.326 79.0995 675.202 80.8488 683.486 84.4077C691.783 87.9721 699.03 92.8301 705.231 98.9814C711.428 105.129 716.258 112.378 719.786 120.8C723.245 129.217 725.009 138.22 725.009 147.944V156.469H616.006H615.254L615.392 157.209C616.458 162.889 618.258 167.921 620.731 172.363C623.205 176.806 626.351 180.593 630.103 183.651C633.85 186.77 638 189.094 642.548 190.686C647.097 192.278 651.91 193.074 656.853 193.074C663.757 193.074 669.764 192.152 674.792 190.29C679.771 188.446 683.786 186.263 686.816 183.794C690.329 181.21 693.214 178.184 695.468 174.775H723.248C719.947 182.581 715.435 189.48 709.77 195.476C707.158 198.066 704.15 200.662 700.871 203.264C697.552 205.846 693.709 208.172 689.405 210.113L689.401 210.115C685.032 212.12 680.135 213.74 674.707 214.908L674.7 214.909C669.286 216.139 663.338 216.724 656.853 216.724H655.337ZM696.645 134.939V134.914L697.127 134.824C696.391 130.908 695.054 126.997 693.119 123.158C691.168 119.22 688.412 115.824 685.066 112.902L685.061 112.899C681.644 109.974 677.632 107.588 673.029 105.736L673.027 105.734C668.328 103.87 662.977 102.946 656.919 102.946C652.241 102.946 647.762 103.675 643.42 105.067C639.071 106.46 634.991 108.584 631.378 111.304C627.689 114.033 624.607 117.425 622.13 121.408C619.652 125.394 617.848 129.905 616.78 134.806L616.614 135.564H617.39H695.996H696.514H696.645V134.939Z" fill="#061611" stroke="#194439" stroke-width="1.24903"/>
<path d="M798.862 216.786C790.216 216.712 782.146 215.092 774.767 211.874C767.199 208.574 760.548 203.981 754.876 198.031C749.208 192.085 744.77 184.84 741.568 176.348L741.567 176.344C738.305 167.867 736.733 158.403 736.733 148.01C736.733 137.619 738.37 128.154 741.568 119.671C744.77 111.18 749.208 103.934 754.876 97.9887C760.551 92.0351 767.136 87.3802 774.761 84.1475L774.761 84.1475L774.767 84.1449C782.323 80.8496 790.538 79.2302 799.487 79.2302C806.275 79.2302 812.256 80.266 817.507 82.3237C822.745 84.4019 827.113 86.6678 830.555 89.0515C834.732 91.9644 838.315 95.197 841.243 98.6174L841.43 98.8359H841.717H843.035H843.659V98.2113V32.046H870.146V214.175H843.659V197.743V197.118H843.035H841.717H841.419L841.232 197.349C838.307 200.96 834.728 204.254 830.555 207.164C827.113 209.547 822.748 211.811 817.518 213.757C812.327 215.688 806.341 216.724 799.487 216.724H798.862V216.786ZM775.58 181.638L775.582 181.64C782.963 189.361 792.688 193.204 804.823 193.204C816.245 193.204 825.639 189.354 832.883 181.636C840.144 173.9 843.725 162.679 843.725 148.075C843.725 133.471 840.144 122.25 832.883 114.514C825.639 106.796 816.245 102.946 804.823 102.946C792.688 102.946 782.963 106.788 775.582 114.51C768.185 122.247 764.604 133.471 764.604 148.075C764.604 162.682 768.253 173.903 775.58 181.638Z" fill="#061611" stroke="#194439" stroke-width="1.24903"/>
<path d="M969.225 213.633C964.107 215.727 957.822 216.829 950.415 216.854L950.349 216.789H950.092C933.68 216.789 920.878 212.058 911.734 202.73L911.734 202.73C902.532 193.345 897.946 179.542 897.946 161.145V81.8444H924.433V158.531C924.433 170.499 927.082 179.319 932.515 184.911C937.945 190.499 946.041 193.204 956.746 193.204C962.097 193.204 967.054 192.209 971.678 190.281L971.681 190.279C976.234 188.353 980.257 185.628 983.611 182.168C987.037 178.702 989.65 174.511 991.521 169.67C993.398 164.816 994.33 159.314 994.33 153.303V81.9097H1020.82V214.306H994.33V196.566V195.942H993.706H992.388H992.049L991.865 196.226C989.404 200.016 986.226 203.429 982.259 206.526C978.82 209.1 974.457 211.493 969.225 213.633Z" fill="#061611" stroke="#194439" stroke-width="1.24903"/>
<path d="M1125.43 106.548L1125.43 106.546C1120.7 104.067 1114.66 102.815 1107.15 102.815C1101.8 102.815 1096.71 103.877 1092.01 106.007C1087.25 108.136 1083.16 111.195 1079.62 115.041L1079.62 115.041L1079.61 115.049C1076.13 118.967 1073.32 123.676 1071.32 129.235C1069.25 134.806 1068.25 141.024 1068.25 147.944C1068.25 154.867 1069.25 161.02 1071.32 166.654L1071.32 166.657C1073.39 172.204 1076.12 176.981 1079.61 180.841C1083.1 184.764 1087.26 187.757 1092.01 189.882C1096.77 192.01 1101.8 193.073 1107.15 193.073C1114.79 193.073 1121.03 191.822 1125.95 189.347L1125.95 189.346C1130.74 186.904 1134.63 184.12 1137.45 181.114C1140.58 177.818 1142.95 173.96 1144.55 169.547H1171.04C1168.6 178.416 1164.63 186.18 1159.24 192.904C1156.83 195.819 1154.02 198.737 1150.88 201.594C1147.76 204.431 1144.04 207.014 1139.81 209.213C1135.57 211.412 1130.67 213.29 1125.32 214.651C1119.9 216.01 1113.9 216.724 1107.22 216.724H1106.6V216.786C1097.42 216.713 1088.81 215.029 1080.77 211.738C1072.55 208.372 1065.51 203.585 1059.57 197.503C1053.64 191.357 1049 184.107 1045.61 175.681C1042.21 167.267 1040.51 158.067 1040.51 148.01C1040.51 137.952 1042.21 128.752 1045.61 120.338C1049 111.914 1053.7 104.663 1059.58 98.5132C1065.51 92.3704 1072.55 87.6469 1080.78 84.2141C1089 80.7856 1097.81 79.1648 1107.22 79.1648C1113.83 79.1648 1119.91 79.879 1125.32 81.2373C1130.74 82.5975 1135.57 84.4749 1139.8 86.6737C1144.05 88.9392 1147.75 91.5226 1150.87 94.4207C1154.01 97.3431 1156.83 100.329 1159.25 103.247C1164.69 109.965 1168.6 117.661 1171.03 126.342H1143.25C1141.83 122.049 1139.52 118.195 1136.41 114.784C1133.71 111.777 1130.03 108.991 1125.43 106.548Z" fill="#061611" stroke="#194439" stroke-width="1.24903"/>
<path d="M1195.01 106.119V105.494H1194.38H1179.13V81.8443H1194.38H1195.01V81.2198V53.024H1221.49V81.2198V81.8443H1222.12H1262.41V105.494H1222.12H1221.49V106.119V189.966V190.59H1222.12H1263.72V214.24H1195.01V106.119Z" fill="#061611" stroke="#194439" stroke-width="1.24903"/>
<path d="M1296.56 60.9243C1292.11 60.9243 1288.45 59.4183 1285.41 56.4001C1282.37 53.383 1280.85 49.688 1280.85 45.3415C1280.85 40.9935 1282.37 37.2309 1285.41 34.1477C1288.46 31.0642 1292.19 29.4973 1296.56 29.4973C1300.95 29.4973 1304.74 31.0656 1307.85 34.1522C1310.96 37.2387 1312.54 41.0009 1312.54 45.3415C1312.54 49.6805 1310.96 53.3752 1307.86 56.3956C1304.75 59.4162 1300.95 60.9243 1296.56 60.9243ZM1283.49 81.8443H1309.97V214.24H1283.49V81.8443Z" fill="#061611" stroke="#194439" stroke-width="1.24903"/>
<path d="M1361.27 214.24L1324.66 81.8444H1352.35L1381.28 190.127L1381.4 190.59H1381.88H1399.08H1399.56L1399.68 190.127L1428.61 81.8444H1456.36L1419.75 214.24H1361.27Z" fill="#061611" stroke="#194439" stroke-width="1.24903"/>
<path d="M1529.52 216.724L1529.57 216.773C1520.73 216.593 1512.37 214.846 1504.54 211.481C1496.24 207.916 1488.99 203.058 1482.79 196.907C1476.59 190.76 1471.76 183.511 1468.24 175.088C1464.78 166.671 1463.01 157.668 1463.01 147.944C1463.01 138.22 1464.78 129.218 1468.24 120.801C1471.76 112.378 1476.59 105.129 1482.79 98.9814C1488.99 92.8301 1496.24 87.9721 1504.54 84.4077C1512.82 80.8488 1521.7 79.0995 1531.1 79.0995C1540.51 79.0995 1549.39 80.8488 1557.67 84.4077C1565.97 87.9721 1573.21 92.8301 1579.42 98.9814C1585.61 105.129 1590.44 112.378 1593.97 120.8C1597.43 129.217 1599.19 138.22 1599.19 147.944V156.469H1490.19H1489.44L1489.58 157.209C1490.64 162.889 1492.44 167.921 1494.92 172.363C1497.39 176.806 1500.54 180.593 1504.29 183.651C1508.04 186.77 1512.18 189.094 1516.73 190.686C1521.28 192.278 1526.09 193.074 1531.04 193.074C1537.94 193.074 1543.95 192.152 1548.98 190.29C1553.96 188.446 1557.97 186.263 1561 183.794C1564.51 181.21 1567.4 178.184 1569.65 174.775H1597.43C1594.13 182.581 1589.62 189.48 1583.95 195.476C1581.34 198.066 1578.33 200.662 1575.06 203.264C1571.74 205.846 1567.89 208.172 1563.59 210.113L1563.59 210.115C1559.22 212.12 1554.32 213.74 1548.89 214.908L1548.88 214.909C1543.47 216.139 1537.52 216.724 1531.04 216.724H1529.52ZM1570.83 134.939V134.914L1571.31 134.824C1570.58 130.908 1569.24 126.997 1567.3 123.158C1565.35 119.22 1562.6 115.824 1559.25 112.902L1559.25 112.899C1555.83 109.974 1551.82 107.588 1547.21 105.736L1547.21 105.734C1542.51 103.87 1537.16 102.946 1531.1 102.946C1526.43 102.946 1521.95 103.675 1517.6 105.067C1513.26 106.46 1509.18 108.584 1505.56 111.304C1501.87 114.033 1498.79 117.425 1496.31 121.408C1493.84 125.394 1492.03 129.905 1490.96 134.806L1490.8 135.564H1491.57H1570.18H1570.7H1570.83V134.939Z" fill="#061611" stroke="#194439" stroke-width="1.24903"/>
<path d="M292.084 83.0848L292.086 83.0848C312.264 84.5651 328.678 101.305 329.521 121.373C330.494 144.342 312.009 163.266 289.035 163.266C277.741 163.266 267.556 158.76 260.227 151.361L260.226 151.36C245.96 137.011 227.096 128.107 206.749 128.107C186.401 128.107 167.537 137.011 153.271 151.36C145.939 158.697 135.753 163.266 124.462 163.266C101.488 163.266 83.0031 144.342 83.976 121.373L83.976 121.373C84.8189 101.37 101.102 84.6309 121.279 83.0849C134.131 82.1838 145.809 87.1405 153.853 95.57C167.544 110.008 186.682 118.181 206.683 118.181C226.684 118.181 245.755 110.007 259.511 95.5711L259.512 95.5697C267.556 87.0752 279.233 82.119 292.084 83.0848ZM209.799 1.46004L209.8 1.46012C229.977 2.94031 246.326 19.679 247.169 39.748L247.169 39.7482C248.142 62.717 229.657 81.6415 206.683 81.6415C195.389 81.6415 185.205 77.1356 177.875 69.7364L177.874 69.7355C163.608 55.3868 144.744 46.4821 124.397 46.4821C104.05 46.4821 85.186 55.3863 70.9201 69.7344C63.5882 77.0718 53.4019 81.6415 42.1104 81.6415C19.1369 81.6415 0.651762 62.7175 1.6241 39.7492C2.53253 19.7419 18.8195 2.94011 38.9938 1.46012L38.9949 1.46004C51.847 0.494215 63.5215 5.45114 71.432 13.9413L71.4368 13.9464C85.1928 28.3828 104.33 36.5559 124.331 36.5559C144.397 36.5559 163.469 28.3826 177.225 13.9464L177.226 13.945C185.271 5.45044 196.947 0.49429 209.799 1.46004ZM209.799 164.645L209.8 164.645C229.975 166.125 246.326 182.928 247.169 202.998L247.169 202.998C248.142 225.967 229.657 244.891 206.683 244.891C195.392 244.891 185.206 240.322 177.875 232.985C163.609 218.637 144.744 209.732 124.397 209.732C104.05 209.732 85.1852 218.637 70.9192 232.985C63.5873 240.322 53.4015 244.891 42.1106 244.891C19.1371 244.891 0.651954 225.967 1.62426 202.999C2.53261 182.927 18.8186 166.19 38.8615 164.645C51.7144 163.744 63.3924 168.701 71.437 177.131C85.1929 191.567 104.331 199.74 124.331 199.74C144.398 199.74 163.469 191.567 177.225 177.131L177.226 177.129C185.271 168.635 196.948 163.679 209.799 164.645Z" fill="#061611" stroke="#194439" stroke-width="1.24903"/>
</svg>
