<svg width="40" height="40" viewBox="0 0 40 40" fill="none" xmlns="http://www.w3.org/2000/svg">
<path d="M6.25 35C8.32107 35 10 33.3211 10 31.25C10 29.1789 8.32107 27.5 6.25 27.5C4.17893 27.5 2.5 29.1789 2.5 31.25C2.5 33.3211 4.17893 35 6.25 35Z" stroke="#2ED960" style="stroke:#2ED960;stroke:color(display-p3 0.1806 0.8500 0.3779);stroke-opacity:1;" stroke-width="3" stroke-linecap="round" stroke-linejoin="round"/>
<path d="M15 18.75C17.0711 18.75 18.75 17.0711 18.75 15C18.75 12.9289 17.0711 11.25 15 11.25C12.9289 11.25 11.25 12.9289 11.25 15C11.25 17.0711 12.9289 18.75 15 18.75Z" stroke="#2ED960" style="stroke:#2ED960;stroke:color(display-p3 0.1806 0.8500 0.3779);stroke-opacity:1;" stroke-width="3" stroke-linecap="round" stroke-linejoin="round"/>
<path d="M25 28.75C27.0711 28.75 28.75 27.0711 28.75 25C28.75 22.9289 27.0711 21.25 25 21.25C22.9289 21.25 21.25 22.9289 21.25 25C21.25 27.0711 22.9289 28.75 25 28.75Z" stroke="#2ED960" style="stroke:#2ED960;stroke:color(display-p3 0.1806 0.8500 0.3779);stroke-opacity:1;" stroke-width="3" stroke-linecap="round" stroke-linejoin="round"/>
<path d="M33.75 12.5C35.8211 12.5 37.5 10.8211 37.5 8.75C37.5 6.67893 35.8211 5 33.75 5C31.6789 5 30 6.67893 30 8.75C30 10.8211 31.6789 12.5 33.75 12.5Z" stroke="#2ED960" style="stroke:#2ED960;stroke:color(display-p3 0.1806 0.8500 0.3779);stroke-opacity:1;" stroke-width="3" stroke-linecap="round" stroke-linejoin="round"/>
<path d="M13.2218 18.3015L8.02808 27.9484" stroke="#2ED960" style="stroke:#2ED960;stroke:color(display-p3 0.1806 0.8500 0.3779);stroke-opacity:1;" stroke-width="3" stroke-linecap="round" stroke-linejoin="round"/>
<path d="M22.3485 22.3485L17.6516 17.6516" stroke="#2ED960" style="stroke:#2ED960;stroke:color(display-p3 0.1806 0.8500 0.3779);stroke-opacity:1;" stroke-width="3" stroke-linecap="round" stroke-linejoin="round"/>
<path d="M31.9718 12.0515L26.7781 21.6984" stroke="#2ED960" style="stroke:#2ED960;stroke:color(display-p3 0.1806 0.8500 0.3779);stroke-opacity:1;" stroke-width="3" stroke-linecap="round" stroke-linejoin="round"/>
</svg>
